<?xml version="1.0" encoding="UTF-8" standalone="no"?>
<!-- Created with Inkscape (http://www.inkscape.org/) -->

<svg
   version="1.1"
   id="svg9"
   width="150"
   height="33.331654"
   viewBox="0 0 150 33.331654"
   xmlns="http://www.w3.org/2000/svg"
   xmlns:svg="http://www.w3.org/2000/svg">
  <defs
     id="defs13" />
  <g
     id="g15"
     transform="translate(592.70732,-261.52761)">
    <g
       id="g2556"
       transform="translate(209.85875,8.1498544)">
      <path
         style="fill:#ff0000;fill-opacity:0"
         d="m -956.37346,164.1092 c 0.0771,-15.7251 0.42428,-24.48008 0.84244,-21.24242 1.07272,8.30576 2.70397,12.28753 6.56844,16.03313 3.17831,3.08054 4.15342,3.43321 10.48117,3.79076 l 6.97683,0.39422 v -9.46496 c 0,-8.17554 0.30924,-9.92786 2.26993,-12.86285 4.06942,-6.09155 7.09834,-6.89458 26.01219,-6.89633 26.80307,-0.002 27.70842,-0.84486 27.71414,-25.78673 0.004,-18.452224 -0.43838,-19.86924 -7.29974,-23.369644 -2.19888,-1.121787 -6.96764,-2.386723 -10.59724,-2.810969 -4.49111,-0.524943 1.94615,-0.813341 20.15072,-0.902782 l 26.75,-0.131425 -0.10045,23.75 c -0.0684,16.18471 -0.38304,22.55053 -0.9876,19.98447 -2.62602,-11.14623 -7.7667,-15.72481 -17.66195,-15.73073 l -6.25,-0.004 v 8.53984 c 0,6.58029 -0.46117,9.4438 -2.00981,12.47939 -3.38325,6.63172 -5.91019,7.37599 -27.04026,7.9643 -26.89107,0.7487 -26.83077,0.6921 -26.99935,25.34137 -0.0945,13.81323 0.16711,17.20577 1.48127,19.21144 2.24938,3.43298 5.87486,5.57969 11.88369,7.03657 4.64136,1.12532 2.69654,1.26591 -18.56554,1.34204 l -23.75,0.085 z m 67.54248,25.70562 c 5.14815,-1.01794 9.20685,-3.06166 11.82876,-5.95627 1.63043,-1.8 1.99764,-3.61108 1.99764,-9.85238 v -7.64697 l -13.25,-0.27903 c -12.42391,-0.26162 -13.25,-0.4019 -13.25,-2.25 0,-1.89887 0.76999,-1.97097 21.04966,-1.97097 23.03696,0 24.95641,-0.39104 28.86529,-5.88056 1.13995,-1.60091 2.72081,-5.3202 3.51303,-8.26509 1.36526,-5.07503 1.44383,-4.0893 1.50621,18.89565 l 0.0658,24.25 -23.25,-0.10957 c -15.21046,-0.0717 -21.80683,-0.39492 -19.0764,-0.93481 z m -1.87487,-10.49801 c -0.98891,-2.17043 -0.85278,-2.84801 0.93046,-4.63125 2.75194,-2.75194 6.97891,-1.83756 7.86725,1.70186 0.81936,3.2646 -1.09277,5.47178 -4.74032,5.47178 -2.13473,0 -3.20438,-0.67025 -4.05739,-2.54239 z m -65.66761,-71.70761 -0.13112,-26.75 26.25,0.136824 c 16.13744,0.08411 23.93856,0.412085 20.25,0.851343 -7.14601,0.850993 -12.42904,2.945919 -15.35838,6.090194 -1.78395,1.914845 -2.14162,3.519846 -2.14162,9.6102 v 7.311439 h 13 13 v 2.44489 2.44489 l -21.42965,0.30511 c -19.9016,0.28335 -21.63076,0.45404 -24.25,2.39369 -4.0259,2.98135 -7.49479,9.76091 -8.33477,16.28942 -0.43672,3.39426 -0.7753,-4.97779 -0.85446,-21.128 z m 36.98438,-9.381654 c -2.84059,-1.989625 -2.85364,-6.90294 -0.0224,-8.418193 3.13177,-1.676075 6.76452,-0.365465 7.53888,2.719853 1.2247,4.879573 -3.53443,8.487504 -7.51652,5.69834 z"
         id="path2560" />
      <g
         id="g3101"
         transform="translate(-6.5225545,132.40786)">
        <path
           style="fill:#ff0000;fill-opacity:0;stroke-width:1.33333"
           d="M -1015.5146,126.95406 V 32.954063 h 310 310 v 93.999997 94 h -310 -310 z m 201.03487,45.45052 0.3682,-21.18237 4.77506,5.57858 c 7.41744,8.6656 13.8192,11.43611 26.48854,11.46353 9.32014,0.0201 11.47326,-0.45104 17.05621,-3.73274 19.64025,-11.54466 25.64276,-44.22439 12.30373,-66.985725 -8.78145,-14.984413 -28.82422,-20.687576 -44.53516,-12.672457 -2.84168,1.449716 -7.60836,5.409733 -10.59262,8.800041 l -5.42595,6.164195 -0.40311,-7.775119 c -0.30294,-5.843169 -0.90006,-7.775119 -2.4031,-7.775119 -1.7399,0 -2.04528,7.16594 -2.34822,55.100634 -0.32858,51.99727 -0.21594,55.07523 2,54.64978 2.10574,-0.40429 2.38624,-2.63823 2.71642,-21.63323 z m 20.61697,-10.56367 c -12.27367,-4.4513 -18.91892,-15.18546 -19.98945,-32.28919 -1.48542,-23.73206 9.30013,-40.19502 28.01381,-42.760014 13.59645,-1.863602 27.73305,7.741784 31.74449,21.569414 2.43312,8.38708 2.45932,24.71044 0.0529,32.99675 -2.45414,8.45082 -11.54311,18.59569 -18.53775,20.69133 -6.52191,1.95401 -15.56593,1.8655 -21.28407,-0.20829 z m -125.92832,2.46828 c 8.0585,-4.38599 13.23086,-10.56213 15.69078,-18.73582 1.46549,-4.86945 1.44382,-6.02052 -0.13808,-7.33337 -1.97589,-1.63984 -2.02368,-1.56761 -5.9771,9.033 -2.13697,5.73004 -10.53974,13.16002 -16.87141,14.91823 -16.32716,4.53379 -31.34454,-0.75425 -37.78199,-13.30409 -3.31097,-6.45478 -5.4862,-18.76991 -3.69741,-20.93308 1.03352,-1.24983 9.48486,-1.66666 33.79177,-1.66666 37.33902,0 35.27633,0.84517 32.49091,-13.31286 -2.30994,-11.74116 -8.37334,-21.082469 -17.05003,-26.267354 -19.97026,-11.933531 -43.69342,-3.08 -52.27688,19.509834 -7.37732,19.41553 -1.79532,46.94642 11.45152,56.47991 10.34319,7.44379 28.33335,8.16229 40.36792,1.61226 z m -49.04383,-47.66389 c 0.0322,-10.75862 11.75908,-26.021922 22.22594,-28.928405 19.69204,-5.468169 37.39599,7.654361 39.44464,29.237165 l 0.3164,3.33334 -31,0.3579 -31,0.35791 z m 331.7105,47.66389 c 8.05849,-4.38599 13.23086,-10.56213 15.69078,-18.73582 1.46548,-4.86945 1.44382,-6.02052 -0.13808,-7.33337 -1.97589,-1.63984 -2.02368,-1.56761 -5.9771,9.033 -2.13698,5.73004 -10.53974,13.16002 -16.87142,14.91823 -16.32716,4.53379 -31.34454,-0.75425 -37.78198,-13.30409 -3.31098,-6.45478 -5.4862,-18.76991 -3.69742,-20.93308 1.03352,-1.24983 9.48487,-1.66666 33.79178,-1.66666 37.33902,0 35.27633,0.84517 32.4909,-13.31286 -2.30993,-11.74116 -8.37333,-21.082469 -17.05002,-26.267354 -19.97026,-11.933531 -43.69343,-3.08 -52.27688,19.509834 -7.37732,19.41553 -1.79532,46.94642 11.45152,56.47991 10.34318,7.44379 28.33334,8.16229 40.36792,1.61226 z m -49.04383,-47.66389 c 0.0321,-10.75862 11.75908,-26.021922 22.22593,-28.928405 19.69204,-5.468169 37.396,7.654361 39.44464,29.237165 l 0.3164,3.33334 -31,0.3579 -31,0.35791 0.0133,-4.35791 z m 122.81048,50.95406 c 11.30168,-3.1393 18.95973,-11.95663 18.94739,-21.81564 -0.0139,-11.07394 -6.22567,-17.63731 -20.43756,-21.59426 -31.92736,-8.88939 -35.33334,-10.94426 -35.33334,-21.31717 0,-8.151131 5.24562,-13.341448 15.69972,-15.534219 15.83074,-3.320531 28.54868,2.552236 32.13075,14.837019 1.86451,6.39433 3.98499,8.2537 5.35153,4.69254 1.17826,-3.07046 -1.31737,-11.545176 -4.64589,-15.776703 -5.04596,-6.414911 -12.64616,-9.323015 -24.56799,-9.400585 -8.8903,-0.05785 -11.81996,0.499874 -17.33333,3.299772 -8.48735,4.310178 -13.21683,12.457345 -11.97621,20.630616 1.60797,10.59354 6.88568,14.86195 23.8771,19.31098 20.10283,5.26372 24.57166,6.97388 28.24646,10.80953 2.8343,2.9584 3.6623,5.11951 3.6623,9.55882 0,12.14628 -8.0422,17.654 -25.77777,17.654 -17.48483,0 -23.93457,-4.19182 -27.38512,-17.79816 -1.71783,-6.77379 -5.95431,-9.60221 -5.94077,-3.96627 0.0295,12.28109 8.28868,22.55553 21.31726,26.51865 4.9121,1.4942 18.61652,1.43242 24.16547,-0.10894 z m 77.33333,0 c 11.30168,-3.1393 18.95974,-11.95663 18.94739,-21.81564 -0.0139,-11.07394 -6.22567,-17.63731 -20.43756,-21.59426 -31.92736,-8.88939 -35.33333,-10.94426 -35.33333,-21.31717 0,-8.151131 5.24561,-13.341448 15.69972,-15.534219 15.83073,-3.320531 28.54868,2.552236 32.13074,14.837019 1.86451,6.39433 3.98499,8.2537 5.35154,4.69254 1.17825,-3.07046 -1.31738,-11.545176 -4.6459,-15.776703 -5.04596,-6.414911 -12.64616,-9.323015 -24.56798,-9.400585 -8.89031,-0.05785 -11.81996,0.499874 -17.33334,3.299772 -8.48734,4.310178 -13.21682,12.457345 -11.97621,20.630616 1.60797,10.59354 6.88568,14.86195 23.87711,19.31098 20.10282,5.26372 24.57165,6.97388 28.24645,10.80953 2.83431,2.9584 3.66231,5.11951 3.66231,9.55882 0,12.14628 -8.0422,17.654 -25.77778,17.654 -17.48482,0 -23.93457,-4.19182 -27.38512,-17.79816 -1.71782,-6.77379 -5.9543,-9.60221 -5.94077,-3.96627 0.0295,12.28109 8.28868,22.55553 21.31727,26.51865 4.91209,1.4942 18.61652,1.43242 24.16546,-0.10894 z m -392.37181,-19.99057 c 7.61788,-9.89343 14.51513,-17.98806 15.32723,-17.98806 0.81209,0 7.79405,8.22589 15.51546,18.27976 8.38242,10.91453 14.9791,18.30135 16.37228,18.33334 4.67084,0.10724 4.80903,0.31418 -27.2897,-40.86576 -0.84736,-1.08709 3.19806,-7.46859 12.86006,-20.28624 7.75298,-10.285136 14.09631,-19.365434 14.09631,-20.178439 0,-4.371863 -5.91116,1.219388 -17.27061,16.335949 -7.00116,9.31677 -13.42439,16.81399 -14.27383,16.66048 -0.84945,-0.1535 -7.14945,-7.77909 -14,-16.94576 -11.14251,-14.909681 -17.12223,-20.488028 -17.12223,-15.972937 0,0.855759 6,9.485541 13.33334,19.177297 7.33333,9.69175 13.32852,18.48558 13.32262,19.54184 -0.005,1.05626 -6.60589,10.44771 -14.66667,20.8699 -8.06077,10.42219 -14.65595,19.61618 -14.65595,20.4311 0,4.40432 6.08403,-1.33045 18.45169,-17.39247 z m 152.21497,-11.33705 c 0.66039,-29.04179 0.70122,-29.37646 4.33848,-35.56388 5.1121,-8.696318 14.28756,-14.420464 23.11514,-14.420464 3.72378,0 5.5702,-2.519893 3.05054,-4.163224 -4.65594,-3.036613 -18.95768,2.209862 -25.83749,9.47827 l -4,4.225932 -0.66667,-5.77049 c -0.45566,-3.944137 -1.29966,-5.770488 -2.66666,-5.770488 -1.7269,0 -2.04818,5.6125 -2.35275,41.101504 -0.33181,38.66156 -0.21308,41.07476 2,40.65101 2.13856,-0.40948 2.41344,-3.11953 3.01941,-29.76817 z"
           id="path3105" />
        <path
           style="fill:#9bf8b2;fill-opacity:1;stroke-width:0.393752"
           d="m -750.02942,138.1532 c 0.0895,-14.15581 0.17965,-16.27202 0.69346,-16.27202 0.44387,0 0.62021,0.57054 0.70967,2.29611 l 0.11905,2.29611 1.60236,-1.82038 c 2.76065,-3.13627 6.25648,-4.30107 10.12394,-3.37328 6.46341,1.55055 9.94541,9.60818 7.5306,17.42642 -1.00113,3.2413 -2.62741,5.47298 -5.00797,6.8723 -1.64873,0.96913 -2.28458,1.10829 -5.03695,1.10233 -3.74144,-0.008 -5.63197,-0.82627 -7.82245,-3.38535 l -1.41015,-1.64743 -0.10873,6.25546 c -0.0975,5.6095 -0.18034,6.26922 -0.8022,6.38861 -0.6544,0.12564 -0.68766,-0.78333 -0.59063,-16.13888 z m 13.76682,6.69218 c 2.06561,-0.61888 4.74972,-3.6148 5.47446,-6.11045 0.71063,-2.44707 0.7029,-7.2676 -0.0156,-9.74442 -0.76616,-2.64099 -3.51884,-5.48692 -5.92802,-6.12884 -5.0278,-1.33965 -9.69646,1.57479 -11.28697,7.04594 -0.86304,2.96873 -0.55527,7.82848 0.65926,10.41002 1.91073,4.06134 6.45925,5.91722 11.0969,4.52775 z m -52.93536,1.46686 c -3.43885,-1.31843 -5.50188,-4.04953 -6.44842,-8.53666 -2.0047,-9.50339 3.82973,-17.70189 11.88155,-16.69588 4.62214,0.5775 8.19665,4.18105 9.19848,9.27322 0.82257,4.18107 1.43171,3.93148 -9.59504,3.93148 -7.17819,0 -9.67399,0.12309 -9.9792,0.49219 -0.52826,0.63881 0.11412,4.27565 1.09189,6.18184 1.90108,3.70615 6.33593,5.26778 11.15758,3.92889 1.86983,-0.51922 4.35129,-2.71341 4.98237,-4.40557 1.1675,-3.13051 1.18161,-3.15185 1.76512,-2.66758 0.46716,0.38771 0.47356,0.72763 0.0408,2.16565 -1.23481,4.10296 -4.75261,6.57073 -9.65577,6.77361 -1.90741,0.0789 -3.49399,-0.0788 -4.43934,-0.44119 z m 13.19026,-14.78411 c -0.39088,-4.11797 -2.82025,-7.48204 -6.10833,-8.45849 -2.37433,-0.7051 -3.50461,-0.74094 -5.54025,-0.17567 -3.09101,0.85832 -6.55414,5.3658 -6.56364,8.54297 l -0.004,1.28696 9.15475,-0.1057 9.15475,-0.10569 z m 70.28532,14.78411 c -3.43885,-1.31843 -5.50188,-4.04953 -6.44842,-8.53666 -2.0047,-9.50339 3.82972,-17.70189 11.88155,-16.69588 4.62214,0.5775 8.19665,4.18105 9.19847,9.27322 0.82258,4.18107 1.43172,3.93148 -9.59503,3.93148 -7.17819,0 -9.67399,0.12309 -9.97921,0.49219 -0.52825,0.63881 0.11412,4.27565 1.0919,6.18184 1.90107,3.70615 6.33592,5.26778 11.15757,3.92889 1.86984,-0.51922 4.3513,-2.71341 4.98238,-4.40557 1.1675,-3.13051 1.18161,-3.15185 1.76512,-2.66758 0.46716,0.38771 0.47356,0.72763 0.0408,2.16565 -1.23481,4.10296 -4.75262,6.57073 -9.65577,6.77361 -1.90742,0.0789 -3.49399,-0.0788 -4.43934,-0.44119 z m 13.19025,-14.78411 c -0.39087,-4.11797 -2.82024,-7.48204 -6.10832,-8.45849 -2.37433,-0.7051 -3.50461,-0.74094 -5.54025,-0.17567 -3.09101,0.85832 -6.55414,5.3658 -6.56364,8.54297 l -0.004,1.28696 9.15475,-0.1057 9.15475,-0.10569 z m 10.91909,14.98846 c -3.84752,-1.17037 -6.28659,-4.20456 -6.29529,-7.83135 -0.004,-1.66437 1.24709,-0.8291 1.75439,1.1713 1.019,4.01815 2.9237,5.25605 8.08723,5.25605 5.23757,0 7.61255,-1.6265 7.61255,-5.21348 0,-1.31099 -0.24452,-1.9492 -1.08153,-2.82286 -1.08522,-1.13272 -2.40493,-1.63776 -8.34159,-3.19221 -5.01782,-1.31386 -6.5764,-2.57439 -7.05126,-5.70281 -0.36637,-2.41369 1.03031,-4.81966 3.53675,-6.09252 1.62818,-0.82685 2.49335,-0.99156 5.11879,-0.97447 3.52069,0.0229 5.76514,0.88171 7.25528,2.77613 0.98296,1.24963 1.71996,3.75233 1.372,4.65909 -0.40356,1.05166 -1.02977,0.50256 -1.58039,-1.38578 -1.05783,-3.62787 -4.81363,-5.36219 -9.48867,-4.38159 -3.08725,0.64756 -4.63636,2.18034 -4.63636,4.58748 0,3.06328 1.00584,3.67011 10.43445,6.29527 4.19698,1.16855 6.03141,3.10681 6.03551,6.3771 0.004,2.91151 -2.25789,5.5154 -5.59544,6.44248 -1.63869,0.45518 -5.6858,0.47342 -7.13642,0.0322 z m 22.83766,0 c -3.84753,-1.17037 -6.28659,-4.20456 -6.2953,-7.83135 -0.004,-1.66437 1.2471,-0.8291 1.7544,1.1713 1.019,4.01815 2.9237,5.25605 8.08722,5.25605 5.23758,0 7.61256,-1.6265 7.61256,-5.21348 0,-1.31099 -0.24452,-1.9492 -1.08154,-2.82286 -1.08522,-1.13272 -2.40493,-1.63776 -8.34158,-3.19221 -5.01782,-1.31386 -6.5764,-2.57439 -7.05126,-5.70281 -0.36637,-2.41369 1.03031,-4.81966 3.53675,-6.09252 1.62818,-0.82685 2.49335,-0.99156 5.11879,-0.97447 3.52068,0.0229 5.76513,0.88171 7.25528,2.77613 0.98296,1.24963 1.71995,3.75233 1.372,4.65909 -0.40356,1.05166 -1.02977,0.50256 -1.58039,-1.38578 -1.05783,-3.62787 -4.81363,-5.36219 -9.48867,-4.38159 -3.08725,0.64756 -4.63636,2.18034 -4.63636,4.58748 0,3.06328 1.00583,3.67011 10.43445,6.29527 4.19698,1.16855 6.03141,3.10681 6.03551,6.3771 0.004,2.91151 -2.25789,5.5154 -5.59544,6.44248 -1.63869,0.45518 -5.6858,0.47342 -7.13642,0.0322 z m -114.18574,-0.79943 c 0,-0.24065 1.94765,-2.95577 4.32812,-6.0336 2.38046,-3.07782 4.32954,-5.85125 4.33128,-6.16318 0.002,-0.31193 -1.76873,-2.90888 -3.93437,-5.77099 -2.16564,-2.86212 -3.93753,-5.41062 -3.93753,-5.66334 0,-1.33337 1.7659,0.314 5.05645,4.71704 2.02306,2.70705 3.88355,4.959 4.1344,5.00433 0.25085,0.0453 2.14773,-2.1687 4.21527,-4.92008 3.35461,-4.46414 5.10026,-6.11532 5.10026,-4.82424 0,0.24009 -1.87327,2.92163 -4.16284,5.95898 -2.85333,3.78524 -4.048,5.66979 -3.79776,5.99083 7.05816,9.05502 8.74811,11.30739 8.74811,11.65952 0,0.2335 -0.31008,0.41743 -0.68907,0.40873 -0.41143,-0.009 -2.35952,-2.19088 -4.83497,-5.4141 -2.28025,-2.96906 -4.34212,-5.39828 -4.58194,-5.39828 -0.23983,0 -2.27669,2.39046 -4.52636,5.31213 -3.65235,4.74335 -5.44905,6.43691 -5.44905,5.13625 z m 48.91804,-11.6981 c 0.09,-10.48042 0.18483,-12.13788 0.6948,-12.13788 0.4037,0 0.65295,0.53935 0.78751,1.70411 l 0.19688,1.70411 1.18125,-1.24798 c 2.03171,-2.14646 6.25522,-3.69582 7.63019,-2.79907 0.74409,0.4853 0.19882,1.22946 -0.90087,1.22946 -2.60691,0 -5.31656,1.69043 -6.82624,4.25858 -1.07413,1.82723 -1.08619,1.92606 -1.28121,10.50253 -0.17895,7.86973 -0.26013,8.67005 -0.89168,8.79097 -0.65355,0.12514 -0.68861,-0.58751 -0.59063,-12.00483 z"
           id="path3103" />
      </g>
    </g>
  </g>
</svg>
