<?xml version="1.0" encoding="UTF-8" standalone="no"?>
<!-- Created with Inkscape (http://www.inkscape.org/) -->

<svg
   version="1.1"
   id="svg9"
   width="150"
   height="149.98761"
   viewBox="0 0 150 149.98761"
   xmlns="http://www.w3.org/2000/svg"
   xmlns:svg="http://www.w3.org/2000/svg">
  <defs
     id="defs13" />
  <g
     id="g15"
     transform="translate(766.3419,-69.226118)">
    <g
       id="g2556"
       transform="translate(209.85875,8.1498544)">
      <path
         style="fill:#ff0000;fill-opacity:0"
         d="m -956.37346,164.1092 c 0.0771,-15.7251 0.42428,-24.48008 0.84244,-21.24242 1.07272,8.30576 2.70397,12.28753 6.56844,16.03313 3.17831,3.08054 4.15342,3.43321 10.48117,3.79076 l 6.97683,0.39422 v -9.46496 c 0,-8.17554 0.30924,-9.92786 2.26993,-12.86285 4.06942,-6.09155 7.09834,-6.89458 26.01219,-6.89633 26.80307,-0.002 27.70842,-0.84486 27.71414,-25.78673 0.004,-18.452224 -0.43838,-19.86924 -7.29974,-23.369644 -2.19888,-1.121787 -6.96764,-2.386723 -10.59724,-2.810969 -4.49111,-0.524943 1.94615,-0.813341 20.15072,-0.902782 l 26.75,-0.131425 -0.10045,23.75 c -0.0684,16.18471 -0.38304,22.55053 -0.9876,19.98447 -2.62602,-11.14623 -7.7667,-15.72481 -17.66195,-15.73073 l -6.25,-0.004 v 8.53984 c 0,6.58029 -0.46117,9.4438 -2.00981,12.47939 -3.38325,6.63172 -5.91019,7.37599 -27.04026,7.9643 -26.89107,0.7487 -26.83077,0.6921 -26.99935,25.34137 -0.0945,13.81323 0.16711,17.20577 1.48127,19.21144 2.24938,3.43298 5.87486,5.57969 11.88369,7.03657 4.64136,1.12532 2.69654,1.26591 -18.56554,1.34204 l -23.75,0.085 z m 67.54248,25.70562 c 5.14815,-1.01794 9.20685,-3.06166 11.82876,-5.95627 1.63043,-1.8 1.99764,-3.61108 1.99764,-9.85238 v -7.64697 l -13.25,-0.27903 c -12.42391,-0.26162 -13.25,-0.4019 -13.25,-2.25 0,-1.89887 0.76999,-1.97097 21.04966,-1.97097 23.03696,0 24.95641,-0.39104 28.86529,-5.88056 1.13995,-1.60091 2.72081,-5.3202 3.51303,-8.26509 1.36526,-5.07503 1.44383,-4.0893 1.50621,18.89565 l 0.0658,24.25 -23.25,-0.10957 c -15.21046,-0.0717 -21.80683,-0.39492 -19.0764,-0.93481 z m -1.87487,-10.49801 c -0.98891,-2.17043 -0.85278,-2.84801 0.93046,-4.63125 2.75194,-2.75194 6.97891,-1.83756 7.86725,1.70186 0.81936,3.2646 -1.09277,5.47178 -4.74032,5.47178 -2.13473,0 -3.20438,-0.67025 -4.05739,-2.54239 z m -65.66761,-71.70761 -0.13112,-26.75 26.25,0.136824 c 16.13744,0.08411 23.93856,0.412085 20.25,0.851343 -7.14601,0.850993 -12.42904,2.945919 -15.35838,6.090194 -1.78395,1.914845 -2.14162,3.519846 -2.14162,9.6102 v 7.311439 h 13 13 v 2.44489 2.44489 l -21.42965,0.30511 c -19.9016,0.28335 -21.63076,0.45404 -24.25,2.39369 -4.0259,2.98135 -7.49479,9.76091 -8.33477,16.28942 -0.43672,3.39426 -0.7753,-4.97779 -0.85446,-21.128 z m 36.98438,-9.381654 c -2.84059,-1.989625 -2.85364,-6.90294 -0.0224,-8.418193 3.13177,-1.676075 6.76452,-0.365465 7.53888,2.719853 1.2247,4.879573 -3.53443,8.487504 -7.51652,5.69834 z"
         id="path2560" />
      <path
         style="fill:#9bf8b2;fill-opacity:1;stroke-width:1.37537"
         d="m -919.0645,209.55385 c -8.31558,-2.12253 -13.27745,-5.08825 -16.34447,-9.76911 -1.80746,-2.75854 -2.16722,-7.42453 -2.03729,-26.42284 0.23186,-33.90187 0.14892,-33.82402 37.1341,-34.85376 29.06167,-0.80915 32.53714,-1.83279 37.19037,-10.95386 2.12995,-4.17506 2.76423,-8.11345 2.76423,-17.16379 V 98.645053 l 8.59606,0.0055 c 11.56901,0.0069 16.61427,3.150657 21.22733,13.226907 6.68014,14.59136 5.45848,40.49212 -2.43261,51.57411 -5.37655,7.55075 -8.01611,8.08852 -39.70081,8.08852 -27.89206,0 -28.95108,0.0992 -28.95108,2.71081 0,2.54182 1.13618,2.73476 18.22366,3.09458 l 18.22365,0.38377 v 10.51742 c 0,12.19589 -1.66638,14.9865 -11.60255,19.43021 -7.82538,3.4997 -31.7702,4.56267 -42.29059,1.87738 z m 43.56304,-12.55196 c 2.61143,-3.14659 0.56514,-8.76724 -3.56968,-9.80502 -2.5806,-0.6477 -4.32276,-0.10893 -6.41555,1.9838 -2.45261,2.45261 -2.63984,3.38453 -1.27973,6.36968 1.83762,4.03312 8.41866,4.88112 11.26496,1.45154 z m -85.25813,-25.05197 c -1.13468,-0.41137 -4.0996,-2.67442 -6.58872,-5.029 -6.13219,-5.80076 -8.90683,-15.88836 -8.85153,-32.18104 0.0385,-11.36046 0.5028,-13.78009 3.95971,-20.63832 6.6618,-13.21651 6.99024,-13.32676 41.14776,-13.81309 l 29.4737,-0.41964 v -3.362629 -3.362629 h -17.87981 -17.87981 V 83.087637 c 0,-11.38594 1.96027,-14.722007 10.8539,-18.471582 12.05729,-5.083382 40.01492,-4.60332 50.74618,0.871363 9.29883,4.743909 9.91984,6.753235 9.91402,32.077722 -0.008,34.3043 -1.25306,35.46289 -38.1172,35.4663 -26.01354,0.003 -30.17943,1.10687 -35.77639,9.48501 -2.69006,4.02678 -3.12199,6.45293 -3.12199,17.53597 v 12.86262 l -7.90838,-0.10851 c -4.34961,-0.0597 -8.83676,-0.44516 -9.97144,-0.85654 z m 44.49234,-90.073456 c 2.09649,-3.323625 -0.11856,-9.220197 -3.81176,-10.147133 -4.98734,-1.251744 -9.04706,1.555337 -9.04706,6.255571 0,7.300158 8.99214,10.021511 12.85882,3.891562 z"
         id="path2558" />
    </g>
  </g>
</svg>
