<?xml version="1.0" encoding="UTF-8" standalone="no"?>
<svg
   viewBox="-11.5 -10.23174 150 133.69565"
   version="1.1"
   id="svg3644"
   width="150"
   height="133.69565"
   xmlns="http://www.w3.org/2000/svg"
   xmlns:svg="http://www.w3.org/2000/svg"
   xmlns:rdf="http://www.w3.org/1999/02/22-rdf-syntax-ns#"
   xmlns:cc="http://creativecommons.org/ns#"
   xmlns:dc="http://purl.org/dc/elements/1.1/">
  <defs
     id="defs3648" />
  <title
     id="title3632">React Logo</title>
  <metadata
     id="metadata4096">
    <rdf:RDF>
      <cc:Work
         rdf:about="">
        <dc:title>React Logo</dc:title>
      </cc:Work>
    </rdf:RDF>
  </metadata>
  <g
     id="g4224"
     transform="matrix(0.40760868,0,0,0.40760868,165.80763,-26.750661)">
    <path
       style="fill:#ff0000;fill-opacity:0"
       d="m -434.92723,288.77642 c 0.0551,-65.09067 0.29403,-78.90984 1.29988,-75.17935 5.12366,19.00267 28.06683,36.63048 63.13263,48.5064 6.05,2.04898 11.31539,3.99526 11.70088,4.32506 0.38548,0.3298 0.27433,2.39925 -0.247,4.59877 -4.85536,20.48501 -6.39307,48.04174 -3.45476,61.91156 3.74179,17.6625 13.52308,29.67902 27.78692,34.13681 3.60922,1.12796 -3.28442,1.32656 -48.03604,1.38385 l -52.25,0.0669 z m 118.93251,79.05962 c 15.26426,-2.5523 34.83332,-13.59861 55.31481,-31.22401 4.84814,-4.17209 9.20648,-7.58561 9.68519,-7.58561 0.47871,0 4.83705,3.41352 9.68519,7.58561 20.48149,17.6254 40.05055,28.67171 55.31481,31.22401 1.375,0.22991 -27.875,0.41802 -65,0.41802 -37.125,0 -66.375,-0.18811 -65,-0.41802 z m 148.5,-0.71177 c 14.68394,-4.6561 24.20857,-16.28443 28.00088,-34.18541 2.87163,-13.55506 1.37611,-42.20062 -3.122,-59.79954 -0.82758,-3.2379 -1.13888,-6.20734 -0.69178,-6.59876 0.44709,-0.39142 5.7629,-2.38811 11.8129,-4.43709 35.06581,-11.87592 58.00897,-29.50373 63.13263,-48.5064 1.00585,-3.73049 1.24479,10.08868 1.29988,75.17935 l 0.06749,79.75 -52.25,-0.0669 c -43.70869,-0.056 -51.59612,-0.27423 -48.25,-1.33525 z M -333.791,350.39823 c -11.29002,-5.58844 -16.35367,-22.69773 -14.1617,-47.85019 1.07902,-12.38148 4.29011,-29.75375 5.77396,-31.2376 0.54563,-0.54563 5.06307,-0.11695 11.29662,1.072 5.71307,1.08968 16.30889,2.75345 23.54627,3.69726 7.23737,0.94382 13.56602,1.99294 14.06364,2.33138 0.49763,0.33844 4.3035,5.11534 8.45748,10.61534 4.15398,5.5 10.8297,13.7812 14.83494,18.40267 5.74448,6.6283 7.07326,8.73996 6.29257,10 -1.65125,2.66512 -16.34878,15.04118 -24.04091,20.24366 -19.78985,13.38462 -35.79721,17.80687 -46.06287,12.72548 z m 142.80032,-0.47565 c -8.07695,-2.75056 -19.17812,-8.96228 -28.56674,-15.98468 -7.83495,-5.86029 -19.4373,-16.30278 -19.4373,-17.49419 0,-0.52572 3.21015,-4.65968 7.13366,-9.18657 3.92351,-4.5269 10.53237,-12.73072 14.68635,-18.23072 4.15398,-5.5 7.99011,-10.29561 8.52473,-10.65691 0.53462,-0.36129 5.51326,-1.19433 11.06365,-1.85119 5.55038,-0.65685 16.12793,-2.28992 23.50566,-3.62904 7.37772,-1.33912 13.78539,-2.06342 14.23925,-1.60956 1.41043,1.41043 4.75967,19.35525 5.77769,30.95614 3.47016,39.54431 -9.94922,56.87382 -36.92695,47.68672 z m -70.8145,-57.4369 c -5.05424,-6.07241 -9.18954,-11.47241 -9.18954,-12 0,-0.58037 7.89962,-0.95926 20,-0.95926 12.10038,0 20,0.37889 20,0.95926 0,1.84838 -18.39556,23.04074 -20,23.04074 -0.8915,0 -5.75621,-4.96833 -10.81046,-11.04074 z m -18.31496,-29.6803 c -4.46353,-0.4738 -5.8239,-1.94969 -14.08301,-15.27896 -12.86597,-20.76419 -22.79157,-39.55221 -22.79157,-43.14179 0,-4.81768 27.30468,-52.54647 32.55223,-56.90156 2.60664,-2.16331 64.2889,-2.16331 66.89554,0 5.344,4.43513 32.55223,52.10757 32.55223,57.03585 0,4.096 -19.87444,39.92719 -29.45644,53.10637 -3.07492,4.22927 -3.77361,4.6505 -8.6936,5.24131 -5.54261,0.66557 -50.58443,0.61717 -56.97538,-0.0612 z m 42.77338,-28.7518 c 20.37169,-9.193 25.25551,-36.62369 9.35204,-52.52716 -12.66593,-12.66593 -33.33407,-12.66593 -46,0 -12.67864,12.67864 -12.74305,33.25695 -0.14353,45.85647 9.86252,9.86252 24.02724,12.43074 36.79149,6.67069 z m -86.98786,23.45115 c -12.21174,-2.27524 -12.6601,-2.45039 -12.6601,-4.9456 0,-3.22561 9.3103,-27.03271 10.57175,-27.03271 0.92729,0 7.20138,10.35976 19.21019,31.71982 1.24962,2.22271 1.17401,2.27781 -3,2.186 -2.35507,-0.0518 -8.7099,-0.91918 -14.12184,-1.92751 z m 130.87419,-2.57355 c 1.59814,-2.69762 5.71015,-9.85476 9.13779,-15.90476 8.56985,-15.12634 7.96457,-14.36832 9.7144,-12.16575 2.13119,2.6826 9.84492,24.22567 9.43549,26.35164 -0.40032,2.07872 -11.05764,4.73754 -23.75769,5.92714 l -7.43572,0.69649 z m -173.10409,-8.25111 c -36.37429,-12.60801 -55.98644,-30.40818 -51.59482,-46.82795 2.75857,-10.31401 13.61973,-20.33236 31.66462,-29.2075 11.68608,-5.74765 31.35388,-12.67672 32.52984,-11.46045 0.44788,0.46324 2.70064,6.01725 5.00613,12.34225 2.30549,6.325 6.23536,16.34221 8.73304,22.26046 l 4.54124,10.76046 -4.14316,9.73954 c -2.27874,5.35675 -6.29504,15.55504 -8.92511,22.66287 -2.63008,7.10783 -5.22296,13.06823 -5.76197,13.24532 -0.539,0.1771 -5.96142,-1.40465 -12.04981,-3.515 z m 218.22231,3.09312 c -0.25853,-0.41831 -2.36235,-5.93246 -4.67517,-12.25367 -2.31281,-6.3212 -6.24667,-16.3306 -8.74191,-22.2431 l -4.5368,-10.75 4.5368,-10.75 c 2.49524,-5.9125 6.42311,-15.925 8.7286,-22.25 2.30549,-6.325 4.5805,-11.90126 5.05557,-12.39168 1.20144,-1.24028 20.30474,5.50549 32.4804,11.46951 23.71819,11.61789 35.15257,25.55543 31.66462,38.59647 -3.56619,13.3336 -21.57407,26.74489 -49.2233,36.65885 -11.3608,4.07355 -14.66692,4.91985 -15.28881,3.91362 z m -286.58502,-129.49677 -0.0675,-79.749996 52.25,0.0669 c 43.70869,0.05596 51.59612,0.274233 48.25,1.335249 -14.68394,4.656109 -24.20857,16.284439 -28.00088,34.185416 -2.93831,13.869823 -1.4006,41.426551 3.45476,61.911561 0.52133,2.19952 0.63248,4.26896 0.247,4.59876 -0.38549,0.3298 -5.65088,2.27608 -11.70088,4.32506 -35.0658,11.87592 -58.00897,29.50373 -63.13263,48.5064 -1.00585,3.73049 -1.24479,-10.08868 -1.29988,-75.17935 z m 366.93251,76.90972 c 0,-3.97922 -5.94509,-14.48641 -11.73512,-20.74033 -10.18076,-10.99644 -29.28816,-21.88413 -51.76488,-29.49644 -6.05,-2.04898 -11.31792,-3.99779 -11.7065,-4.33068 -0.38857,-0.3329 0.43137,-6.00234 1.82209,-12.59876 3.36935,-15.98144 4.35854,-42.341023 2.00391,-53.399442 -3.9264,-18.440104 -13.28715,-29.98875 -28.1195,-34.691919 -3.34612,-1.061016 4.54131,-1.279289 48.25,-1.335249 l 52.25,-0.0669 v 79.5 c 0,43.725 -0.225,79.5 -0.5,79.5 -0.275,0 -0.5,-1.05312 -0.5,-2.34028 z M -328.04755,181.4277 c -2.11932,-3.95999 -8.94717,-22.92818 -8.94717,-24.85579 0,-1.0601 0.38089,-2.16286 0.84642,-2.45057 1.68415,-1.04087 24.32803,-4.70641 27.20873,-4.4045 l 2.95386,0.30958 -4.81692,8 c -2.64931,4.4 -6.96278,11.9375 -9.58549,16.75 -2.62271,4.8125 -5.16629,8.75 -5.6524,8.75 -0.48611,0 -1.38927,-0.94443 -2.00703,-2.09872 z m 146.45723,-6.65128 c -2.61666,-4.8125 -6.40319,-11.45 -8.41451,-14.75 -2.01132,-3.3 -4.23518,-7.08255 -4.94191,-8.40567 l -1.28497,-2.40567 6.74783,0.63012 c 11.39156,1.06376 23.61225,3.83842 24.25232,5.5064 0.99399,2.59031 -8.65612,28.17482 -10.62715,28.17482 -0.53572,0 -3.11495,-3.9375 -5.73161,-8.75 z m -161.48024,-38.94948 c -2.41109,-6.34163 -5.0602,-26.30279 -5.14934,-38.800516 -0.10318,-14.464202 1.52309,-22.919889 5.8175,-30.247737 9.34686,-15.949215 31.66816,-12.847082 59.90768,8.325751 8.55068,6.410947 19.5,16.251395 19.5,17.525172 0,0.514458 -3.21015,4.639201 -7.13366,9.1661 -3.92351,4.52689 -10.53237,12.73071 -14.68635,18.23071 -4.15398,5.5 -7.95985,10.27691 -8.45748,10.61534 -0.49762,0.33844 -6.82627,1.38696 -14.06364,2.33004 -7.23738,0.94309 -17.65887,2.57732 -23.15887,3.63164 -5.5,1.05431 -10.34864,1.91829 -10.77475,1.91996 -0.42611,0.002 -1.2366,-1.21174 -1.80109,-2.69646 z m 170.57584,0.65453 c -4.95,-1.01517 -14.625,-2.56623 -21.5,-3.44679 -6.875,-0.88056 -13.175,-1.81829 -14,-2.08383 -0.825,-0.26554 -4.73627,-4.85717 -8.69171,-10.20361 -3.95544,-5.34645 -10.65838,-13.72928 -14.89541,-18.62851 -6.07175,-7.020689 -7.49473,-9.245011 -6.71721,-10.500001 1.97301,-3.184615 17.04301,-15.556845 26.67515,-21.899879 13.91085,-9.160677 22.91348,-12.590435 33.19811,-12.647587 7.15262,-0.03975 8.53747,0.264912 12.19473,2.682769 8.62083,5.699334 12.53444,17.240429 12.4696,36.772392 -0.0395,11.896106 -1.71557,25.577236 -4.47164,36.499996 -1.50614,5.96906 -1.73402,6.02427 -14.26162,3.45505 z m -98.5,-7.87832 c 0,-2.14268 18.11281,-23.07673 19.96672,-23.07673 1.62732,0 20.03328,21.16912 20.03328,23.04074 0,0.58037 -7.89962,0.95926 -20,0.95926 -11.55865,0 -20,-0.38968 -20,-0.92327 z m 9,-57.213178 c -19.47097,-16.801854 -38.87514,-27.644175 -54,-30.173165 -1.375,-0.22991 27.875,-0.418019 65,-0.418019 37.125,0 66.375,0.188109 65,0.418019 -15.32161,2.561888 -35.1133,13.72544 -55.30252,31.193515 -4.84139,4.188856 -9.11639,7.711544 -9.5,7.828196 -0.38362,0.116652 -5.42248,-3.865194 -11.19748,-8.848546 z"
       id="path4228" />
    <path
       style="fill:#9bf8b2;fill-opacity:1"
       d="m -334.70868,367.14405 c -14.45084,-4.75073 -24.05042,-16.56763 -27.78692,-34.20519 -2.93831,-13.86982 -1.4006,-41.42655 3.45476,-61.91156 0.52133,-2.19952 0.63248,-4.26897 0.247,-4.59877 -0.38549,-0.3298 -5.65088,-2.27608 -11.70088,-4.32506 -31.19432,-10.56474 -52.30276,-25.27453 -60.67611,-42.28321 -2.97883,-6.05087 -3.32389,-7.63856 -3.32389,-15.29384 0,-7.65528 0.34506,-9.24297 3.32389,-15.29384 8.37335,-17.00868 29.48179,-31.71847 60.67611,-42.28321 6.05,-2.04898 11.31539,-3.99526 11.70088,-4.32506 0.38548,-0.3298 0.27433,-2.39924 -0.247,-4.59876 -4.85536,-20.48501 -6.39307,-48.041742 -3.45476,-61.911565 3.2527,-15.35384 11.48199,-26.995883 22.76657,-32.208038 5.50863,-2.544343 7.34012,-2.87595 15.73431,-2.848829 7.24665,0.02341 11.16036,0.586737 16.5,2.374946 14.85534,4.974955 29.58942,14.095316 46.81481,28.978258 4.84814,4.188856 9.20648,7.616102 9.68519,7.616102 0.47871,0 4.83705,-3.427246 9.68519,-7.616102 17.22539,-14.882942 31.95947,-24.003303 46.81481,-28.978258 5.33964,-1.788209 9.25335,-2.351533 16.5,-2.374946 8.39419,-0.02712 10.22568,0.304486 15.73431,2.848829 11.41686,5.273255 19.50366,16.833389 22.88519,32.714541 2.35463,11.058419 1.36544,37.418002 -2.00391,53.399442 -1.39072,6.59642 -2.21066,12.26586 -1.82209,12.59876 0.38858,0.33289 5.6565,2.2817 11.7065,4.33068 31.19432,10.56474 52.30276,25.27453 60.67611,42.28321 2.97883,6.05087 3.32389,7.63856 3.32389,15.29384 0,7.65528 -0.34506,9.24297 -3.32389,15.29384 -8.37335,17.00868 -29.48179,31.71847 -60.67611,42.28321 -6.05,2.04898 -11.36581,4.04567 -11.8129,4.43709 -0.4471,0.39142 -0.1358,3.36086 0.69178,6.59876 4.49811,17.59892 5.99363,46.24448 3.122,59.79954 -3.2527,15.35384 -11.48199,26.99588 -22.76657,32.20804 -5.50863,2.54434 -7.34012,2.87595 -15.73431,2.84883 -11.13348,-0.036 -18.77117,-2.21225 -31.85329,-9.07625 -9.90378,-5.19637 -19.41111,-11.93744 -31.46152,-22.30745 -4.84814,-4.17209 -9.20648,-7.58561 -9.68519,-7.58561 -0.47871,0 -4.83705,3.41352 -9.68519,7.58561 -17.23477,14.83142 -31.19723,23.58555 -45.42785,28.48214 -9.12956,3.14138 -22.38987,4.09177 -28.60092,2.04988 z m 20.78246,-16.21751 c 7.18324,-2.11586 17.29017,-7.22903 26.19809,-13.25379 7.69213,-5.20248 22.38966,-17.57854 24.04091,-20.24366 0.78069,-1.26004 -0.54809,-3.3717 -6.29257,-10 -4.00524,-4.62147 -10.68096,-12.90267 -14.83494,-18.40267 -4.15398,-5.5 -7.95985,-10.2769 -8.45748,-10.61534 -0.49762,-0.33844 -6.82627,-1.38756 -14.06364,-2.33138 -7.23738,-0.94381 -17.8332,-2.60758 -23.54627,-3.69726 -6.23355,-1.18895 -10.75099,-1.61763 -11.29662,-1.072 -1.48385,1.48385 -4.69494,18.85612 -5.77396,31.2376 -3.28038,37.64172 9.37775,55.63892 34.02648,48.3785 z m 145.64296,-0.50249 c 11.31964,-5.47974 16.44357,-22.84408 14.21953,-48.18819 -1.01802,-11.60089 -4.36726,-29.54571 -5.77769,-30.95614 -0.45386,-0.45386 -6.86153,0.27044 -14.23925,1.60956 -7.37773,1.33912 -17.95528,2.97219 -23.50566,3.62904 -5.55039,0.65686 -10.52903,1.4899 -11.06365,1.85119 -0.53462,0.3613 -4.37075,5.15691 -8.52473,10.65691 -4.15398,5.5 -10.76284,13.70382 -14.68635,18.23072 -3.92351,4.52689 -7.13366,8.66085 -7.13366,9.18657 0,0.52572 3.05365,3.68985 6.7859,7.03141 26.0155,23.29226 50.31672,33.53686 63.92556,26.94893 z m -71.901,-57.93837 c 5.05424,-6.07241 9.18954,-11.47241 9.18954,-12 0,-0.58037 -7.89962,-0.95926 -20,-0.95926 -12.10038,0 -20,0.37889 -20,0.95926 0,1.84838 18.39556,23.04074 20,23.04074 0.8915,0 5.75621,-4.96833 10.81046,-11.04074 z m 17.0395,-29.61908 c 4.91999,-0.59081 5.61868,-1.01204 8.6936,-5.24131 9.582,-13.17918 29.45644,-49.01037 29.45644,-53.10637 0,-4.92828 -27.20823,-52.60072 -32.55223,-57.03585 -2.60664,-2.16331 -64.2889,-2.16331 -66.89554,0 -5.24755,4.35509 -32.55223,52.08388 -32.55223,56.90156 0,3.58958 9.9256,22.3776 22.79157,43.14179 8.25911,13.32927 9.61948,14.80516 14.08301,15.27896 6.39095,0.67839 51.43277,0.72679 56.97538,0.0612 z m -34.50621,-26.34019 c -20.01799,-4.15986 -31.64031,-26.81592 -23.16042,-45.14795 9.67419,-20.9139 36.71147,-25.95724 52.81667,-9.85204 12.66593,12.66593 12.66593,33.33407 0,46 -7.43345,7.43345 -19.52965,11.10437 -29.65625,8.99999 z m -49.56181,20.71983 c -12.00881,-21.36006 -18.2829,-31.71982 -19.21019,-31.71982 -1.26145,0 -10.57175,23.8071 -10.57175,27.03271 0,1.11653 0.63454,2.27356 1.4101,2.57116 2.85747,1.09652 21.22429,4.21072 25.37184,4.30195 4.17401,0.0918 4.24962,0.0367 3,-2.186 z m 133.70441,-0.51179 c 6.10244,-1.30548 8.06874,-2.13632 8.33562,-3.52214 0.40943,-2.12597 -7.3043,-23.66904 -9.43549,-26.35164 -1.74983,-2.20257 -1.14455,-2.96059 -9.7144,12.16575 -3.42764,6.05 -7.53965,13.20714 -9.13779,15.90476 l -2.90573,4.90476 7.43572,-0.69649 c 4.08965,-0.38307 11.02958,-1.46532 15.42207,-2.405 z m -175.24437,-19.7847 c 2.63007,-7.10783 6.64637,-17.30612 8.92511,-22.66287 l 4.14316,-9.73954 -4.54124,-10.76046 c -2.49768,-5.91825 -6.42755,-15.93546 -8.73304,-22.26046 -2.30549,-6.325 -4.55825,-11.87901 -5.00613,-12.34225 -1.17596,-1.21627 -20.84376,5.7128 -32.52984,11.46045 -18.04489,8.87514 -28.90605,18.89349 -31.66462,29.2075 -3.45417,12.91475 7.7519,26.72082 31.09482,38.30935 9.6675,4.7994 30.79495,12.61018 32.54981,12.0336 0.53901,-0.17709 3.13189,-6.13749 5.76197,-13.24532 z m 215.69934,8.90982 c 27.64923,-9.91396 45.65711,-23.32525 49.2233,-36.65885 3.48795,-13.04104 -7.94643,-26.97858 -31.66462,-38.59647 -12.17566,-5.96402 -31.27896,-12.70979 -32.4804,-11.46951 -0.47507,0.49042 -2.75008,6.06668 -5.05557,12.39168 -2.30549,6.325 -6.23336,16.3375 -8.7286,22.25 l -4.5368,10.75 4.5368,10.75 c 2.49524,5.9125 6.4291,15.9219 8.74191,22.2431 2.31282,6.32121 4.41664,11.83536 4.67517,12.25367 0.62189,1.00623 3.92801,0.15993 15.28881,-3.91362 z m -187.33472,-71.08315 c 2.62271,-4.8125 6.93618,-12.35 9.58549,-16.75 l 4.81692,-8 -2.95386,-0.30958 c -2.8807,-0.30191 -25.52458,3.36363 -27.20873,4.4045 -1.56341,0.96624 -0.86863,4.31889 3.06556,14.79283 4.44284,11.8281 5.78463,14.61225 7.04222,14.61225 0.48611,0 3.02969,-3.9375 5.6524,-8.75 z m 147.78649,3.5 c 4.15982,-9.56582 7.96019,-21.38699 7.37007,-22.92482 -0.64007,-1.66798 -12.86076,-4.44264 -24.25232,-5.5064 l -6.74783,-0.63012 1.28497,2.40567 c 0.70673,1.32312 2.93059,5.10567 4.94191,8.40567 2.01132,3.3 5.79785,9.9375 8.41451,14.75 2.61666,4.8125 5.19589,8.75 5.73161,8.75 0.53573,0 2.00141,-2.3625 3.25708,-5.25 z m -157.89309,-41.67298 c 5.5,-1.05432 15.92149,-2.68855 23.15887,-3.63164 7.23737,-0.94308 13.56602,-1.9916 14.06364,-2.33004 0.49763,-0.33843 4.3035,-5.11534 8.45748,-10.61534 4.15398,-5.5 10.76284,-13.70382 14.68635,-18.23071 3.92351,-4.526899 7.13366,-8.651642 7.13366,-9.1661 0,-1.273777 -10.94932,-11.114225 -19.5,-17.525172 -28.23952,-21.172833 -50.56082,-24.274966 -59.90768,-8.325751 -4.29441,7.327848 -5.92068,15.783535 -5.8175,30.247737 0.12074,16.927556 4.23771,41.507566 6.95043,41.496976 0.42611,-0.002 5.27475,-0.86565 10.77475,-1.91996 z m 172.26162,-3.57702 c 2.75607,-10.92276 4.43215,-24.60389 4.47164,-36.499996 0.0648,-19.531963 -3.84877,-31.073058 -12.4696,-36.772392 -3.65726,-2.417857 -5.04211,-2.722516 -12.19473,-2.682769 -10.28463,0.05715 -19.28726,3.48691 -33.19811,12.647587 -9.63214,6.343034 -24.70214,18.715264 -26.67515,21.899879 -0.77752,1.25499 0.64546,3.479312 6.71721,10.500001 4.23703,4.89923 10.93997,13.28206 14.89541,18.62851 3.95544,5.34644 7.86671,9.93807 8.69171,10.20361 0.825,0.26554 7.125,1.20327 14,2.08383 6.875,0.88056 16.55,2.43162 21.5,3.44679 12.5276,2.56922 12.75548,2.51401 14.26162,-3.45505 z m -72.76162,-4.45926 c 0,-1.87162 -18.40596,-23.04074 -20.03328,-23.04074 -1.85391,0 -19.96672,20.93405 -19.96672,23.07673 0,0.53359 8.44135,0.92327 20,0.92327 12.10038,0 20,-0.37889 20,-0.95926 z"
       id="path4226" />
  </g>
</svg>
