<?xml version="1.0" encoding="UTF-8" standalone="no"?>
<!-- Created with Inkscape (http://www.inkscape.org/) -->

<svg
   version="1.1"
   id="svg1633"
   width="107.034"
   height="149.99953"
   viewBox="0 0 107.034 149.99953"
   xmlns="http://www.w3.org/2000/svg"
   xmlns:svg="http://www.w3.org/2000/svg">
  <defs
     id="defs1637" />
  <g
     id="g1639"
     transform="translate(-555.2319,-208.66265)">
    <g
       id="g1715"
       transform="translate(415.23529,9.1764706)">
      <path
         style="fill:#4d4d4d;fill-opacity:0"
         d="M 0.13618205,330.75 C 0.21108218,212.3625 0.42857442,116.4 0.61949813,117.5 0.81042185,118.6 8.651152,205.9 18.043343,311.5 29.351981,438.64734 35.521996,503.86636 36.310027,504.58464 36.964512,505.18119 69.675,514.56775 109,525.44366 c 39.325,10.87591 71.6875,19.95032 71.91667,20.16536 C 181.14583,545.82406 140.53333,546 90.666667,546 H 0 Z M 277.45711,525.57937 c 42.97525,-11.95116 73.28726,-20.8623 73.7605,-21.68415 0.44187,-0.76737 8.44394,-87.34522 17.78238,-192.39522 9.33844,-105.05 17.14129,-192.125 17.33966,-193.5 0.19838,-1.375 0.42811,94.3625 0.51052,212.75 L 387,546 295.75,545.9342 204.5,545.8684 277.45711,525.57946 Z M 143.55015,451.41426 c -26.37242,-7.37768 -48.334944,-13.79905 -48.805604,-14.26971 -0.470661,-0.47067 -2.342614,-17.23323 -4.159895,-37.25015 -3.025644,-33.32676 -3.168463,-36.50381 -1.694399,-37.69246 1.237412,-0.99781 6.737389,-1.22911 23.778448,-1 12.19278,0.16393 22.42256,0.55284 22.73283,0.86423 0.31028,0.31139 1.29695,8.63639 2.19261,18.5 0.89647,9.87256 2.14031,18.43988 2.76716,19.05964 1.31642,1.30153 49.21203,14.36529 52.76564,14.39209 2.99829,0.0226 52.03395,-13.02607 53.34541,-14.19553 1.48861,-1.32743 6.54412,-60.0467 5.30114,-61.57237 C 250.97375,337.26837 233.0816,337 168.43657,337 116.41324,337 85.897717,336.64352 85.519385,336.03136 84.629896,334.59214 80.793156,291.98141 81.408636,290.3775 81.852003,289.2221 95.973571,289 168.99337,289 h 87.05613 l 0.82707,-2.25 c 1.14242,-3.10788 4.51146,-44.29642 3.77932,-46.20436 C 260.12686,239.16702 250.16839,239 168.5,239 96.148739,239 76.845846,238.73773 76.50169,237.75 75.69518,235.43532 72.052978,192.7233 72.588253,191.8572 72.879632,191.38574 127.31648,191 193.55902,191 H 314 l 0.0157,3.75 c 0.0276,6.59176 -21.18511,241.72112 -21.87411,242.46024 -0.7719,0.82803 -97.72698,27.83157 -99.46959,27.70387 -0.64461,-0.0472 -22.74945,-6.12217 -49.12187,-13.49985 z M 0,55 V 0 H 193.5 387 v 55 55 H 193.5 0 Z m 220,-1.893011 c 0,-20.864811 -0.20048,-23.969941 -1.58179,-24.5 C 217.54823,28.273145 209.86523,28 201.34489,28 c -14.21494,0 -15.4639,-0.144211 -15.15617,-1.75 0.29849,-1.557623 2.14787,-1.804965 16.82332,-2.25 L 219.5,23.5 v -10 -10 L 190.73187,3.2346348 161.96373,2.9692697 162.23187,26.734635 162.5,50.5 179,51 c 13.77778,0.417508 16.5,0.747475 16.5,2 0,1.252525 -2.72222,1.582492 -16.5,2 L 162.5,55.5 162.21617,66.25 161.93234,77 H 190.96617 220 Z m 70.39301,22.311224 C 290.72686,74.548229 291,64.230372 291,52.489641 291,34.416807 290.75899,30.901848 289.42857,29.571429 288.13516,28.278017 285.11455,28 272.35525,28 c -14.22504,0 -15.47422,-0.144144 -15.16591,-1.75 0.30054,-1.565334 2.01853,-1.779172 16.28065,-2.026446 11.22051,-0.194539 16.17498,-0.638966 16.72202,-1.5 1.02589,-1.614732 1.00431,-16.8660142 -0.0261,-18.4894351 -0.62401,-0.9830686 -7.15538,-1.2064802 -29.23469,-1 L 232.5,3.5 V 27 50.5 L 249,51 c 13.77778,0.417508 16.5,0.747475 16.5,2 0,1.252525 -2.72222,1.582492 -16.5,2 l -16.5,0.5 -0.28383,10.75 -0.28383,10.75 h 28.92684 c 25.45501,0 28.99969,-0.189848 29.53383,-1.581787 z M 149.5,64 V 52.5 L 133,52 116.5,51.5 v -12 -12 L 133,27 149.5,26.5 V 15 3.5 h -29 -29 l -0.263237,34.994313 c -0.144781,19.246871 -0.04375,35.566291 0.224516,36.265377 0.382185,0.995959 6.715829,1.213627 29.263241,1.005687 L 149.5,75.5 Z"
         id="path1719" />
      <path
         style="fill:#9af7b1;stroke-width:0.276225"
         d="m 170.17934,343.82887 c -11.64461,-3.2539 -20.10917,-5.7534 -20.23904,-5.97639 -0.12278,-0.21081 -2.33295,-24.12486 -4.91149,-53.14232 -2.57854,-29.01746 -4.76564,-53.4116 -4.86023,-54.2092 l -0.17197,-1.45019 h 53.517 53.517 l -0.16484,1.31207 c -0.0907,0.72164 -2.29075,25.17793 -4.8891,54.34732 -3.09514,34.74629 -4.8366,53.13888 -5.04998,53.33577 -0.17914,0.16528 -9.3997,2.80685 -20.49015,5.87014 l -20.16444,5.56964 -3.03848,-0.0319 -3.03847,-0.0319 z m 36.91023,-20.45816 c 7.41658,-2.05701 13.56699,-3.8283 13.66758,-3.93621 0.19032,-0.20416 6.04982,-65.15283 6.04218,-66.97364 l -0.004,-1.03584 h -33.26884 c -18.29786,0 -33.33469,0.10655 -33.41518,0.23678 -0.14786,0.23924 0.85821,12.03738 1.08099,12.67675 0.0951,0.27284 5.42701,0.34528 25.41226,0.34528 22.55887,0 25.30965,0.0461 25.45578,0.42695 0.20224,0.52702 -0.72838,11.90433 -1.04394,12.76281 l -0.22846,0.6215 h -24.0471 c -20.16991,0 -24.07065,0.0614 -24.19312,0.3805 -0.17001,0.44304 0.8898,12.2132 1.1355,12.61075 0.1045,0.1691 8.53366,0.26757 22.90382,0.26757 17.85659,0 22.79885,0.0741 23.01976,0.34528 0.34334,0.42143 -1.05312,16.64117 -1.46431,17.00784 -0.36226,0.32303 -13.90715,3.92741 -14.73535,3.92116 -0.9816,-0.007 -14.21157,-3.61594 -14.5752,-3.97545 -0.17315,-0.1712 -0.51673,-2.53771 -0.76436,-5.26476 -0.24741,-2.72458 -0.51995,-5.02415 -0.60566,-5.11017 -0.0857,-0.086 -2.91142,-0.19344 -6.27938,-0.23872 -4.70717,-0.0633 -6.2264,5.5e-4 -6.56821,0.27623 -0.40717,0.32833 -0.36772,1.20591 0.46804,10.41161 0.50198,5.52918 1.01906,10.15942 1.14907,10.28943 0.21687,0.21687 26.31119,7.61651 27.05004,7.67065 0.17806,0.013 6.39185,-1.65928 13.80843,-3.7163 z m -22.22111,-106.40479 0.0784,-2.96942 4.55771,-0.13812 c 3.80577,-0.11532 4.55772,-0.20647 4.55772,-0.55245 0,-0.34598 -0.75195,-0.43712 -4.55772,-0.55245 l -4.55771,-0.13811 -0.0741,-6.56459 -0.0741,-6.5646 7.94649,0.0733 7.94648,0.0733 v 2.76226 2.76225 l -4.55439,0.13811 c -4.05373,0.12293 -4.56457,0.19125 -4.64702,0.62151 -0.085,0.44356 0.25999,0.48339 4.18651,0.48339 2.35354,0 4.47578,0.0755 4.71609,0.16767 0.38155,0.14641 0.43693,1.00413 0.43693,6.76752 v 6.59985 h -8.01988 -8.01988 z m 19.33577,0 0.0784,-2.96942 4.55772,-0.13812 c 3.80577,-0.11532 4.55772,-0.20647 4.55772,-0.55245 0,-0.34598 -0.75195,-0.43712 -4.55772,-0.55245 l -4.55772,-0.13811 v -6.49129 -6.4913 l 7.85341,-0.0734 c 6.09886,-0.057 7.90299,0.005 8.07536,0.27623 0.28464,0.44843 0.2906,4.66122 0.007,5.10724 -0.15111,0.23784 -1.51966,0.36061 -4.61904,0.41434 -3.93956,0.0683 -4.41411,0.12737 -4.49713,0.55976 -0.0852,0.44358 0.25989,0.48339 4.18921,0.48339 3.52444,0 4.35881,0.0768 4.71608,0.43407 0.36751,0.3675 0.43408,1.33842 0.43408,6.33059 0,3.24309 -0.0755,6.09314 -0.16767,6.33345 -0.14754,0.38449 -1.12667,0.43693 -8.15799,0.43693 h -7.99032 z m -38.88005,2.35059 c -0.0741,-0.19311 -0.10201,-4.70094 -0.062,-10.01741 l 0.0727,-9.66632 h 8.01053 8.01054 v 3.17659 3.17659 l -4.55772,0.13812 -4.55772,0.13811 v 3.3147 3.31471 l 4.55772,0.13811 4.55772,0.13811 v 3.17659 3.17659 l -7.94852,0.0733 c -6.22816,0.0574 -7.97767,-0.003 -8.08324,-0.2778 z"
         id="path1717" />
    </g>
  </g>
</svg>
