<?xml version="1.0" encoding="UTF-8" standalone="no"?>
<!-- Created with Inkscape (http://www.inkscape.org/) -->

<svg
   version="1.1"
   id="svg9"
   width="149.98248"
   height="150"
   viewBox="0 0 149.98248 150"
   xmlns="http://www.w3.org/2000/svg"
   xmlns:svg="http://www.w3.org/2000/svg">
  <defs
     id="defs13" />
  <g
     id="g15"
     transform="translate(5.0206216,-131.78427)">
    <g
       id="g1823"
       transform="matrix(0.29293454,0,0,0.29293454,227.58301,156.43381)">
      <path
         style="fill:#4d4d4d;fill-opacity:0"
         d="M -794.04645,171.91284 V -84.087158 h 53.98687 53.98687 l 0.26313,34.25 0.26313,34.25 h 11.5 11.5 l 0.28372,-10.739412 c 0.33059,-12.513147 -0.15611,-12.053066 12.22806,-11.559206 l 7.48822,0.298618 0.5,11 0.5,11 h 11.5 11.5 l 0.26313,-34.25 0.26313,-34.25 4.73687,-0.0013 4.73687,-0.0013 v 11.251302 11.251301 l 8.94793,0.29182 c 4.92136,0.1605 9.53386,0.778101 10.25,1.372444 0.99682,0.827291 1.30207,6.20945 1.30207,22.958181 v 21.877555 h 11.5 11.5 V -36.96471 c 0,-16.748731 0.30525,-22.13089 1.30207,-22.958181 0.71614,-0.594343 5.32864,-1.211944 10.25,-1.372444 l 8.94793,-0.29182 0.28275,-11.25 0.28275,-11.25 h 4.45412 4.45412 l 0.26313,34.25 0.26313,34.25 10.91901,0.285546 c 8.06245,0.210843 11.13241,-0.05077 11.73469,-1 0.44862,-0.70705 0.82257,-7.473046 0.83099,-15.035546 0.008,-7.5625 0.35668,-13.75 0.77391,-13.75 0.41723,0 3.45473,4.268139 6.75,9.484754 3.29527,5.216614 6.5719,9.709399 7.2814,9.983965 0.79916,0.309263 3.75521,-3.299662 7.7689,-9.484754 3.5634,-5.491181 6.90837,-9.983965 7.43327,-9.983965 0.55018,0 1.07156,6.246842 1.2311,14.75 l 0.27673,14.75 h 11.5 11.5 V -49.837564 -84.08797 h 5.5 5.5 v 34.250406 34.250406 h 28 28 l 0.29407,-9 c 0.47474,-14.529123 1.83332,-13.402932 -16.55676,-13.724672 l -15.73731,-0.275328 -0.26877,-22.75 -0.26878,-22.75 h 70.01878 70.01877 v 255.999998 256 l -127.75,-0.116 c -70.2625,-0.0638 -127.01965,-0.31079 -126.12701,-0.54887 24.47925,-6.52878 145.23521,-40.35999 145.69276,-40.81755 0.59428,-0.59427 33.00794,-358.941708 33.13007,-366.267578 l 0.0542,-3.25 h -181 c -171.70882,0 -181.00074,0.0898 -181.01435,1.75 -0.0245,2.98743 32.05142,363.620838 32.54632,365.922298 0.29464,1.37014 1.66742,2.55626 3.71758,3.21209 1.78775,0.57188 34.30045,9.61619 72.25045,20.09846 37.95,10.48228 69.45,19.23881 70,19.45897 0.55,0.22016 -56.2625,0.43581 -126.25,0.47923 l -127.25,0.079 z m 209,164.3504 c -24.475,-6.86841 -44.8589,-12.83846 -45.29756,-13.26677 -0.68324,-0.66713 -6.68725,-61.46814 -6.69847,-67.83363 l -0.004,-2.25 h 22.5 c 17.32701,0 22.50272,0.28739 22.51185,1.25 0.007,0.6875 0.67664,8.45 1.48916,17.25 1.00933,10.93144 1.9094,16.31678 2.8413,17 0.75018,0.55 12.11756,3.85076 25.26083,7.33502 l 23.89686,6.33502 24.42375,-6.54448 c 13.43306,-3.59947 24.95345,-7.12523 25.60087,-7.83502 1.0521,-1.15348 5.55321,-45.81693 5.49651,-54.54054 l -0.0211,-3.25 -21.75,-0.14403 c -11.9625,-0.0792 -47.16993,-0.41672 -78.23872,-0.75 l -56.48872,-0.60597 -6.11841,-67 c -3.36513,-36.85 -5.8452,-67.293868 -5.51128,-67.653048 0.33392,-0.35917 51.11173,-0.97907 112.83957,-1.37755 106.75248,-0.68914 112.26554,-0.63825 112.91043,1.04232 0.97472,2.54006 -2.63629,41.715248 -4.00023,43.397908 -0.97442,1.20211 -13.58263,1.31346 -85.64264,0.7563 -49.44897,-0.38233 -85.0822,-0.281 -85.90356,0.24429 -1.20126,0.76825 -1.15745,3.75813 0.30392,20.7437 0.93911,10.91534 1.94396,21.08358 2.23301,22.59608 l 0.52554,2.75 h 81.95193 c 70.38412,0 82.02988,0.20314 82.50419,1.43917 0.77528,2.02034 -11.42415,136.76995 -12.47772,137.82352 -1.1848,1.1848 -89.72685,25.75703 -92.44913,25.65653 -1.2035,-0.0444 -22.21318,-5.7004 -46.68818,-12.56882 z m -77,-409.350398 v -11 h 10 10 v 11 11 h -10 -10 z m 158.75849,-0.0037 -6.7415,-10.996333 h 14.4283 14.4283 l -6.6868,10.968189 c -3.67773,6.032503 -7.13679,10.980853 -7.68679,10.996332 -0.55,0.01548 -4.03368,-4.920205 -7.74151,-10.968188 z"
         id="path1827" />
      <path
         style="fill:#9bf8b2;fill-opacity:1"
         d="m -612.40246,407.47251 c -41.48665,-11.55079 -73.23434,-20.8821 -73.73469,-21.67219 -0.48327,-0.76311 -0.88557,-2.38263 -0.89399,-3.59893 -0.008,-1.21629 -7.21531,-82.96505 -16.01531,-181.6639 -8.8,-98.69885 -16,-180.391198 -16,-181.538548 v -2.0861 h 181 181 l -0.0542,3.25 c -0.12213,7.32587 -32.53579,365.673308 -33.13007,366.267578 -0.65671,0.65671 -141.77206,39.95914 -146.64584,40.84274 -1.66245,0.30139 -30.16122,-7.17013 -75.52592,-19.80065 z m 120.93195,-70.99744 c 24.58478,-6.84077 45.08739,-12.82556 45.56137,-13.29954 1.05357,-1.05357 13.253,-135.80318 12.47772,-137.82352 -0.47431,-1.23603 -12.12007,-1.43917 -82.50419,-1.43917 h -81.95193 l -0.52554,-2.75 c -0.28905,-1.5125 -1.2939,-11.68074 -2.23301,-22.59608 -1.46137,-16.98557 -1.50518,-19.97545 -0.30392,-20.7437 0.82136,-0.52529 36.45459,-0.62662 85.90356,-0.24429 72.06001,0.55716 84.66822,0.44581 85.64264,-0.7563 1.36394,-1.68266 4.97495,-40.857848 4.00023,-43.397908 -0.64489,-1.68057 -6.15795,-1.73146 -112.91043,-1.04232 -61.72784,0.39848 -112.50565,1.01838 -112.83957,1.37755 -0.33392,0.35918 2.14615,30.803048 5.51128,67.653048 l 6.11841,67 56.48872,0.60597 c 31.06879,0.33328 66.27622,0.67078 78.23872,0.75 l 21.75,0.14403 0.0211,3.25 c 0.0567,8.72361 -4.44441,53.38706 -5.49651,54.54054 -0.64742,0.70979 -12.16781,4.23555 -25.60087,7.83502 l -24.42372,6.54448 -23.89686,-6.33502 c -13.14327,-3.48426 -24.51065,-6.78502 -25.26083,-7.33502 -0.9319,-0.68322 -1.83197,-6.06856 -2.8413,-17 -0.81252,-8.8 -1.48265,-16.5625 -1.48916,-17.25 -0.009,-0.96261 -5.18484,-1.25 -22.51185,-1.25 h -22.5 l 0.004,2.25 c 0.0112,6.36549 6.01523,67.1665 6.69847,67.83363 1.02207,0.99795 89.0716,25.728 91.98574,25.83559 1.20349,0.0444 22.30299,-5.51622 46.88776,-12.35699 z M -685.34888,-15.722921 c -0.38366,-0.383664 -0.69757,-15.92257 -0.69757,-34.530904 v -33.833333 h 12 12 v 11 11 h 10 10 v -11 -11 h 12.01313 12.01313 l -0.26313,34.25 -0.26313,34.25 h -11.5 -11.5 l -0.5,-11 -0.5,-11 -7.48822,-0.298618 c -12.38417,-0.49386 -11.89747,-0.953941 -12.22806,11.559206 l -0.28372,10.739412 -11.05243,0.280903 c -6.07884,0.154497 -11.36634,-0.033 -11.75,-0.416666 z m 97.30243,-21.241792 c 0,-16.748731 -0.30525,-22.13089 -1.30207,-22.958181 -0.71614,-0.594343 -5.32864,-1.211944 -10.25,-1.372444 l -8.94793,-0.29182 -0.29407,-9 c -0.16174,-4.95 -0.0407,-10.0125 0.26905,-11.25 l 0.56312,-2.25 h 32.0137 32.0137 l -0.28275,11.25 -0.28275,11.25 -8.94793,0.29182 c -4.92136,0.1605 -9.53386,0.778101 -10.25,1.372444 -0.99682,0.827291 -1.30207,6.20945 -1.30207,22.958181 v 21.877555 h -11.5 -11.5 z m 53.66667,21.210888 c -0.36667,-0.366666 -0.66667,-15.905111 -0.66667,-34.529877 v -33.86321 l 12.66483,0.279877 12.66483,0.279877 6.58517,10.746511 c 3.62184,5.910581 7.03517,10.734373 7.58517,10.719538 0.55,-0.01484 3.93557,-4.850765 7.52349,-10.746511 l 6.52349,-10.719538 12.19979,-0.280564 c 11.97687,-0.275438 12.20995,-0.238895 12.75605,2 0.30595,1.25431 0.43048,16.680564 0.27673,34.280564 l -0.27955,32 h -11.5 -11.5 l -0.27673,-14.75 c -0.15954,-8.503158 -0.68092,-14.75 -1.2311,-14.75 -0.5249,0 -3.86987,4.492784 -7.43327,9.983965 -4.01369,6.185092 -6.96974,9.794017 -7.7689,9.484754 -0.7095,-0.274566 -3.98613,-4.767351 -7.2814,-9.983965 -3.29527,-5.216615 -6.33277,-9.484754 -6.75,-9.484754 -0.41723,0 -0.7586,6.038196 -0.7586,13.418213 0,7.380016 -0.27314,14.130016 -0.60699,15 -0.50129,1.306345 -2.4748,1.581787 -11.33333,1.581787 -5.89949,0 -11.02635,-0.3 -11.39301,-0.666667 z m 89.0155,0.0155 c -0.84349,-0.843491 -0.91526,-64.577845 -0.0752,-66.767045 0.50426,-1.314095 2.5319,-1.581788 11.98122,-1.581788 h 11.37424 l 0.26878,22.75 0.26877,22.75 15.73731,0.275328 c 18.39008,0.32174 17.0315,-0.804451 16.55676,13.724672 l -0.29407,9 -27.56783,0.265499 c -15.16231,0.146024 -27.87481,-0.04148 -28.25,-0.416666 z"
         id="path1825" />
    </g>
  </g>
</svg>
