<?xml version="1.0" encoding="UTF-8" standalone="no"?>
<!-- Created with Inkscape (http://www.inkscape.org/) -->

<svg
   version="1.1"
   id="svg9"
   width="106.24442"
   height="150"
   viewBox="0 0 106.24442 150"
   xmlns="http://www.w3.org/2000/svg"
   xmlns:svg="http://www.w3.org/2000/svg">
  <defs
     id="defs13" />
  <g
     id="g15"
     transform="translate(-626.55426,-214.16176)">
    <g
       id="g287"
       transform="matrix(0.2676182,0,0,0.2676182,626.55426,214.29557)">
      <path
         style="fill:#fafafa;fill-opacity:0"
         d="M 0,280 V 0 H 81.106989 C 154.65511,0 162.15741,0.14741663 161.60699,1.5817875 161.27314,2.4517706 161,13.251771 161,25.581787 V 48 h -16.8 c -11.73333,0 -17.1619,0.361905 -18,1.2 -1.79584,1.79584 -1.64739,24.183812 0.17036,25.692412 0.97354,0.807959 10.16776,1.060603 31.75,0.872444 L 188.5,75.5 V 37.749651 -6.9783752e-4 l 5.25,3.4891876e-4 L 199,0 v 8.9756794 8.9756796 l 15.5,16.921869 c 8.525,9.307028 15.5,17.192973 15.5,17.524321 0,0.331348 -6.4125,0.609342 -14.25,0.617764 -7.8375,0.0084 -14.82908,0.382725 -15.53684,0.831785 -0.94633,0.600423 -1.21094,3.573273 -1,11.234688 L 199.5,75.5 l 34.88174,0.263109 c 24.91124,0.187902 35.27284,-0.06148 36.25,-0.872445 C 271.59005,74.095336 272,71.246582 272,65.382513 V 57.009916 L 256.5,40.292143 C 247.975,31.097369 241,23.288595 241,22.939312 c 0,-0.349282 6.18178,-0.945295 13.73729,-1.324474 7.55551,-0.379179 14.12548,-1.077609 14.59994,-1.552067 0.47446,-0.474457 0.70518,-5.183026 0.51271,-10.4634853 L 269.5,-0.00154929 333.25,-7.7464613e-4 397,0 V 280 560 H 198.5 0 Z m 248,266.85482 c 56.66523,-15.45231 102.73502,-28.64839 107.74476,-30.86207 2.33462,-1.03161 4.67951,-2.9145 5.21086,-4.1842 0.53135,-1.2697 1.89754,-12.65855 3.03599,-25.30855 C 392.4559,170.21496 397.31696,111.93991 395.48335,108.97306 395.09683,108.34766 324.68581,108 198.4096,108 34.448035,108 1.8515576,108.22326 1.4194841,109.34923 0.25191728,112.39186 3.4817183,155.8784 11.940068,251 c 4.915132,55.275 12.17098,136.95 16.124107,181.5 4.522782,50.96976 7.621737,81.46765 8.358753,82.26138 0.644188,0.69375 14.650061,5.0395 31.124161,9.65721 73.432061,20.58311 114.384191,31.90705 119.945501,33.16691 10.24393,2.32066 17.11593,1.10195 60.50741,-10.73068 z M 165,463.35315 C 97.506598,444.48189 98.719853,444.87682 97.86597,441.5 96.067274,434.38675 90.718206,379.35735 91.189393,372.81363 L 91.5,368.5 l 22.70483,-0.26866 c 20.86371,-0.24687 22.77864,-0.12524 23.61505,1.5 0.50061,0.97276 1.48529,8.96866 2.18816,17.76866 0.70287,8.8 1.62255,16.93382 2.04373,18.07515 0.63175,1.71196 4.06327,2.9736 19.607,7.20874 10.36268,2.82347 22.48507,6.04421 26.93866,7.15719 l 8.09743,2.02359 11.90257,-2.90849 c 14.33989,-3.50407 36.8349,-9.7136 40.69079,-11.2323 1.53352,-0.604 3.18153,-1.83311 3.66226,-2.73135 0.97455,-1.82096 6.39309,-58.0697 5.86046,-60.83623 C 258.49259,342.60274 253.5889,342.47075 174.9864,342 L 91.5,341.5 l 0.266074,-9 c 0.24424,-8.26145 5.180442,-65.51399 11.920766,-138.26307 1.4912,-16.09468 3.05522,-29.81968 3.47561,-30.5 0.59688,-0.96594 22.13265,-1.29489 98.30094,-1.50149 53.64513,-0.1455 97.5778,-0.1455 97.62814,0 0.70041,2.02435 9.41686,103.48128 8.93781,104.03344 -0.3669,0.42288 -11.20052,0.64788 -24.07472,0.5 L 264.547,266.5 263.85556,264 c -0.38029,-1.375 -1.57621,-12.10677 -2.65759,-23.84837 -1.3916,-15.10994 -2.38704,-21.76927 -3.40647,-22.7887 -1.95632,-1.95632 -17.14241,-3.09846 -52.55795,-3.95284 -34.4397,-0.83085 -53.79566,0.006 -54.70116,2.36611 -0.79656,2.0758 -7.70939,74.06703 -7.31063,76.13393 0.27744,1.43805 8.29788,1.58987 83.99094,1.58987 54.52745,0 83.99535,0.34841 84.57724,1 0.79055,0.88525 -10.15153,126.53569 -12.45223,142.99186 -0.69683,4.98421 -1.25848,6.19263 -3.33979,7.18574 -6.08777,2.90481 -93.92742,27.35622 -97.93969,27.2629 C 196.6512,471.90777 181.775,468.04346 165,463.35315 Z"
         id="path295" />
      <path
         style="fill:#9bf8b2;fill-opacity:1"
         d="m 187.49259,557.53279 c -5.5257,-1.20331 -43.67147,-11.73448 -119.945501,-33.1142 -16.4741,-4.61771 -30.479973,-8.96346 -31.124161,-9.65721 C 35.685912,513.96765 32.586957,483.46976 28.064175,432.5 24.111048,387.95 16.842789,306.275 11.912489,251 6.9821881,195.725 2.7739429,143.975 2.5608326,136 2.0680201,117.55799 1.9887149,116.80646 9.050577,197.5 21.439802,339.06753 37.168035,513.50137 37.580794,513.91413 38.071415,514.40475 105.81681,533.49327 157,547.56271 c 31.35827,8.61988 40.33885,11.32366 37.5,11.29011 -0.55,-0.006 -3.70334,-0.60051 -7.00741,-1.32003 z M 246.5,545.56362 c 83.95241,-23.03504 109.90487,-30.64316 112.19529,-32.89071 0.76419,-0.74989 3.01228,-21.18951 6.23328,-56.67291 7.33733,-80.83007 17.22694,-192.28667 23.51361,-265 6.37504,-73.73542 6.511,-75.00735 6.03924,-56.5 -0.36676,14.38786 -7.05078,91.55384 -30.48981,352 -1.13845,12.65 -2.50464,24.03885 -3.03599,25.30855 -0.53135,1.2697 -2.87624,3.15259 -5.21086,4.1842 -8.82477,3.89944 -146.33051,42.03769 -151.29451,41.96266 -1.62264,-0.0245 17.29975,-5.60083 42.04975,-12.39179 z M 183,470.40605 c -45.1597,-12.48725 -84.125185,-23.78406 -85.405724,-24.7607 -1.796897,-1.37045 -3.69387,-14.65998 -6.579451,-46.09334 -2.601618,-28.34007 -2.600171,-31.16837 0.01666,-32.56886 2.226536,-1.19161 47.282215,-1.00827 48.484265,0.19729 0.37316,0.37424 1.4396,9.01657 2.36987,19.20518 0.93028,10.18861 1.99591,18.82924 2.36807,19.2014 0.37216,0.37216 12.27983,3.79981 26.46148,7.617 l 25.78483,6.94035 12.5,-3.0454 c 24.05901,-5.86154 41.84338,-11.24844 42.46254,-12.86194 0.32819,-0.85526 1.70799,-13.52097 3.06622,-28.14602 C 255.88698,361.46595 257.11115,348.375 257.24913,347 L 257.5,344.5 174.29973,344 c -61.81195,-0.37146 -83.502239,-0.80203 -84.374906,-1.6749 -1.424267,-1.4246 -1.193842,-4.53526 7.616875,-102.8251 3.549751,-39.6 6.804361,-73.3325 7.232471,-74.96112 0.51022,-1.94096 1.63063,-3.19856 3.25211,-3.65032 4.07775,-1.1361 195.76762,-1.03106 196.47138,0.10766 1.02475,1.65808 9.95057,104.39333 9.23246,106.26468 -0.60717,1.58228 -2.73833,1.7391 -23.63364,1.7391 -12.63145,0 -24.08199,-0.42419 -25.44564,-0.94265 -2.20118,-0.83689 -2.55166,-1.70645 -3.12366,-7.75 -2.09559,-22.14105 -4.33493,-41.44843 -4.86931,-41.98282 -2.45611,-2.45611 -101.26568,-4.11094 -103.64477,-1.73581 -1.14647,1.14456 -8.35491,72.00086 -7.54467,74.16128 0.36978,0.98599 17.95307,1.25323 83.25019,1.26531 50.17458,0.009 83.36964,0.38721 84.27484,0.95948 1.3089,0.8275 0.7665,8.95079 -4.38915,65.73469 -7.57464,83.42637 -7.77811,85.21322 -9.87841,86.749 -3.07921,2.25157 -96.68859,28.61526 -101.09803,28.47275 -1.17033,-0.0378 -7.75287,-1.62415 -14.62787,-3.52518 z m 50.05823,-7.34594 c 38.50453,-10.61058 59.50753,-16.74483 62.93969,-18.38251 2.08131,-0.99311 2.64296,-2.20153 3.33979,-7.18574 2.3007,-16.45617 13.24278,-142.10661 12.45223,-142.99186 -0.58189,-0.65159 -30.04979,-1 -84.57724,-1 -75.69306,0 -83.7135,-0.15182 -83.99094,-1.58987 -0.39876,-2.0669 6.51407,-74.05813 7.31063,-76.13393 0.9055,-2.35971 20.26146,-3.19696 54.70116,-2.36611 35.41554,0.85438 50.60163,1.99652 52.55795,3.95284 1.01943,1.01943 2.01487,7.67876 3.40647,22.7887 1.08138,11.7416 2.2773,22.47337 2.65759,23.84837 l 0.69144,2.5 23.40762,0.26888 c 12.8742,0.14788 23.70782,-0.0771 24.07472,-0.5 0.47905,-0.55216 -8.2374,-102.00909 -8.93781,-104.03344 -0.0503,-0.1455 -43.98301,-0.1455 -97.62814,0 -76.16829,0.2066 -97.70406,0.53555 -98.30094,1.50149 -0.42039,0.68032 -1.98441,14.40532 -3.47561,30.5 C 96.946516,266.98601 92.010314,324.23855 91.766074,332.5 l -0.266074,9 83.4864,0.5 c 78.6025,0.47075 83.50619,0.60274 83.82454,2.2563 0.53263,2.76653 -4.88591,59.01527 -5.86046,60.83623 -0.48073,0.89824 -2.12874,2.12735 -3.66226,2.73135 -3.85589,1.5187 -26.3509,7.72823 -40.69079,11.2323 l -11.90257,2.90849 -8.09743,-2.02359 c -4.45359,-1.11298 -16.57598,-4.33372 -26.93866,-7.15719 -15.54373,-4.23514 -18.97525,-5.49678 -19.607,-7.20874 -0.42118,-1.14133 -1.34086,-9.27515 -2.04373,-18.07515 -0.70287,-8.8 -1.68755,-16.7959 -2.18816,-17.76866 -0.83641,-1.62524 -2.75134,-1.74687 -23.61505,-1.5 L 91.5,368.5 l -0.310607,4.31363 c -0.471187,6.54372 4.877881,61.57312 6.676577,68.68637 0.739233,2.92342 1.216494,3.13179 18.69631,8.16265 41.3371,11.89722 79.1079,22.2223 81.49595,22.27785 1.40703,0.0327 17.15703,-3.96345 35,-8.88039 z M 1.1578947,119 c 0,-1.375 0.2269737,-1.9375 0.504386,-1.25 0.2774123,0.6875 0.2774123,1.8125 0,2.5 -0.2774123,0.6875 -0.504386,0.125 -0.504386,-1.25 z M 395.15789,118 c 0,-1.375 0.22698,-1.9375 0.50439,-1.25 0.27741,0.6875 0.27741,1.8125 0,2.5 -0.27741,0.6875 -0.50439,0.125 -0.50439,-1.25 z M 1.5,109 c 0.8559725,-1.38499 393.14403,-1.38499 394,0 0.41123,0.66538 -65.50929,1 -197,1 C 67.009288,110 1.0887737,109.66538 1.5,109 Z M 126.21414,74.814142 C 124.54611,73.146112 124.53381,50.86619 126.2,49.2 c 0.8381,-0.838095 6.26667,-1.2 18,-1.2 H 161 l 0.0153,-22.75 C 161.02404,12.28938 161.44775,1.8545463 162,1 c 1.07153,-1.65807819 1.45515,43.650331 0.39301,46.418213 -0.51846,1.351083 -2.96144,1.58402 -16.75,1.5971 -8.87865,0.0084 -16.72045,0.381716 -17.42622,0.829542 -0.95422,0.605479 -1.2106,3.870358 -1,12.734687 L 127.5,74.5 l 29.1152,0.26489 c 23.48715,0.213687 29.33205,0.0036 30.23702,-1.08683 0.77025,-0.928093 1.21036,-12.450178 1.4043,-36.76489 L 188.539,1.5 l -0.0195,37 -0.0195,37 -30.53586,0.264142 c -22.9134,0.198207 -30.83893,-0.03894 -31.75,-0.95 z m 73.45253,0.519191 C 199.3,74.966667 199,70.064812 199,64.440322 199,56.037724 199.28209,54.105728 200.58179,53.606989 201.45177,53.273145 208.42677,53 216.08179,53 223.7368,53 230,52.728897 230,52.397549 230,52.066201 223.025,44.180256 214.5,34.873228 L 199,17.951359 199.17545,8.7256794 199.3509,-0.5 199.92545,8.5543181 200.5,17.608636 216.25,34.858574 c 13.76993,15.081295 16.60064,18.605783 15.5,19.298849 -0.1375,0.08658 -7.225,0.424082 -15.75,0.75 L 200.5,55.5 v 9.5 9.5 h 34.5 34.5 l 0.29042,-8.85194 0.29042,-8.851939 -11.251,-12.148061 c -6.18805,-6.681433 -13.45578,-14.536012 -16.15052,-17.45462 -2.69474,-2.918609 -4.60186,-5.604233 -4.23804,-5.968054 0.36382,-0.363821 7.27587,-0.900869 15.36011,-1.193439 L 268.5,19.5 l 0.56103,-9 0.56103,-9 0.18897,9.190983 c 0.10393,5.055041 -0.19415,9.427763 -0.6624,9.717161 -0.46826,0.289397 -6.99326,0.834412 -14.5,1.211144 C 247.14188,21.996019 241,22.59003 241,22.939312 c 0,0.349283 6.975,8.158057 15.5,17.352831 L 272,57.009916 v 8.295042 c 0,5.118366 -0.45955,8.754595 -1.2,9.495042 -0.88714,0.887135 -10.22963,1.2 -35.83333,1.2 -19.04834,0 -34.93334,-0.3 -35.3,-0.666667 z"
         id="path293" />
      <path
         style="fill:#9bf8b2;fill-opacity:1"
         d="M 193.5,557.99611 C 192.4,557.47366 175.975,552.77863 157,547.56271 105.83113,533.49721 38.071468,514.4048 37.581129,513.91446 37.131078,513.46441 17.935124,299.86094 8.5617,191 5.5544979,156.075 2.6228963,124.45415 2.0470299,120.73144 1.4711634,117.00873 1,113.07123 1,111.98144 1,110.01287 2.2832993,110 198.5,110 c 173.78922,0 197.5,0.17785 197.5,1.48144 0,0.81479 -0.47257,4.52729 -1.05015,8.25 -0.57758,3.72271 -3.51336,35.56856 -6.52396,70.76856 -5.86869,68.61701 -15.34669,175.71035 -23.49732,265.5 -3.221,35.4834 -5.46909,55.92302 -6.23328,56.67291 -1.59809,1.56818 -14.78478,5.72852 -46.69529,14.73217 -42.96319,12.1222 -111.29815,30.82151 -114,31.19518 -1.375,0.19016 -3.4,-0.0817 -4.5,-0.60415 z m 35.12787,-91.88318 c 40.36463,-11.02651 68.11214,-19.20234 70.09803,-20.65445 2.1003,-1.53578 2.30377,-3.32263 9.87841,-86.749 5.15565,-56.7839 5.69805,-64.90719 4.38915,-65.73469 -0.9052,-0.57227 -34.10026,-0.9502 -84.27484,-0.95948 -65.29712,-0.0121 -82.88041,-0.27932 -83.25019,-1.26531 -0.81024,-2.16042 6.3982,-73.01672 7.54467,-74.16128 2.37909,-2.37513 101.18866,-0.7203 103.64477,1.73581 0.53438,0.53439 2.77372,19.84177 4.86931,41.98282 0.572,6.04355 0.92248,6.91311 3.12366,7.75 1.36365,0.51846 12.81419,0.94265 25.44564,0.94265 20.89531,0 23.02647,-0.15682 23.63364,-1.7391 0.71811,-1.87135 -8.20771,-104.6066 -9.23246,-106.26468 -0.70376,-1.13872 -192.39363,-1.24376 -196.47138,-0.10766 -1.62148,0.45176 -2.74189,1.70936 -3.25211,3.65032 -0.42811,1.62862 -3.68272,35.36112 -7.232471,74.96112 -8.810717,98.28984 -9.041142,101.4005 -7.616875,102.8251 0.872667,0.87287 22.562956,1.30344 84.374906,1.6749 l 83.20027,0.5 -0.25087,2.5 c -0.13798,1.375 -1.36215,14.46595 -2.72037,29.09101 -1.35823,14.62505 -2.73803,27.29076 -3.06622,28.14602 -0.61916,1.6135 -18.40353,7.0004 -42.46254,12.86194 l -12.5,3.0454 -25.78483,-6.94035 c -14.18165,-3.81719 -26.08932,-7.24484 -26.46148,-7.617 -0.37216,-0.37216 -1.43779,-9.01279 -2.36807,-19.2014 -0.93027,-10.18861 -1.99671,-18.83094 -2.36987,-19.20518 -1.20205,-1.20556 -46.257726,-1.3889 -48.484262,-0.19729 -2.616834,1.40049 -2.618281,4.22879 -0.01666,32.56886 2.885581,31.43336 4.782554,44.72289 6.579451,46.09334 0.825965,0.62995 17.567641,5.68111 37.203731,11.22482 52.28936,14.76245 60.47394,16.98492 62.82986,17.06106 1.17033,0.0378 15.12033,-3.48041 31,-7.8183 z M 142.25,74.252143 c 8.1125,-0.168085 21.3875,-0.168085 29.5,0 8.1125,0.168084 1.475,0.305608 -14.75,0.305608 -16.225,0 -22.8625,-0.137524 -14.75,-0.305608 z M 200.6533,74.25 c -0.2556,-0.4125 9.73034,-0.635475 22.19098,-0.495501 42.60703,0.47862 46.65702,0.813049 12.46474,1.029279 C 216.50398,74.9027 200.9089,74.6625 200.6533,74.25 Z M 136.75,49.256012 c 4.5375,-0.185293 11.9625,-0.185293 16.5,0 4.5375,0.185294 0.825,0.336897 -8.25,0.336897 -9.075,0 -12.7875,-0.151603 -8.25,-0.336897 z M 256.92431,43.25 254.5,40.5 l 2.75,2.424314 c 1.5125,1.333373 2.75,2.570873 2.75,2.75 0,0.784274 -0.8098,0.145975 -3.07569,-2.424314 z M 222.40499,41.75 220.5,39.5 l 2.25,1.904988 C 224.86444,43.195206 225.45524,44 224.65499,44 c -0.18976,0 -1.20226,-1.0125 -2.25,-2.25 z M 211.92431,30.25 209.5,27.5 l 2.75,2.424314 c 1.5125,1.333373 2.75,2.570873 2.75,2.75 0,0.784274 -0.8098,0.145975 -3.07569,-2.424314 z m 33,0 -2.42431,-2.75 2.75,2.424314 c 1.5125,1.333373 2.75,2.570873 2.75,2.75 0,0.784274 -0.8098,0.145975 -3.07569,-2.424314 z M 239.75,20.337719 c 0.6875,-0.277412 1.8125,-0.277412 2.5,0 0.6875,0.277413 0.125,0.504386 -1.25,0.504386 -1.375,0 -1.9375,-0.226973 -1.25,-0.504386 z"
         id="path291" />
      <path
         style="fill:#9bf8b2;fill-opacity:1"
         d="M 127,62 V 50 h 16.8 c 11.73333,0 17.1619,-0.361905 18,-1.2 0.86611,-0.866106 1.2,-7.822222 1.2,-25 V 0 h 12.5 12.5 v 35.418213 c 0,19.480016 -0.27314,36.130016 -0.60699,37 C 186.85825,73.811782 183.22904,74 156.89301,74 H 127 Z m 73.42364,10.661609 c -0.28247,-0.736114 -0.38085,-4.898614 -0.21861,-9.25 L 200.5,55.5 215.98812,55 c 12.72307,-0.410737 15.53318,-0.76779 15.74054,-2 0.13883,-0.825 -6.94333,-9.339531 -15.73812,-18.92118 L 200,16.65764 V 8.3288199 0 h 34.5 34.5 v 9.480948 c 0,11.281289 1.39364,10.419188 -17.4182,10.77483 -7.72829,0.146105 -13.05505,0.656616 -13.25883,1.270709 -0.18735,0.564568 6.86335,8.817432 15.6682,18.339697 L 270,57.179394 V 65.589697 74 h -34.53138 c -27.91891,0 -34.62974,-0.256291 -35.04498,-1.338391 z"
         id="path289" />
    </g>
  </g>
</svg>
