<?xml version="1.0" encoding="UTF-8" standalone="no"?>
<svg
   id="Layer_1"
   data-name="Layer 1"
   viewBox="0 0 150.00034 39.68182"
   version="1.1"
   width="150.00034"
   height="39.68182"
   xmlns="http://www.w3.org/2000/svg"
   xmlns:svg="http://www.w3.org/2000/svg"
   xmlns:rdf="http://www.w3.org/1999/02/22-rdf-syntax-ns#"
   xmlns:cc="http://creativecommons.org/ns#"
   xmlns:dc="http://purl.org/dc/elements/1.1/">
  <defs
     id="defs11">
    <style
       id="style9">.cls-1{fill:#10aa50;}.cls-2{fill:#b8c4c2;}.cls-3{fill:#12924f;}.cls-4{fill:#21313c;}</style>
  </defs>
  <title
     id="title13">MongoDB_Logo_FullColorBlack_RGB</title>
  <g
     id="g342"
     transform="translate(-180.48418,-843.13105)">
    <g
       id="g2681"
       transform="translate(69.427914,269.82212)">
      <path
         style="fill:#666666;fill-opacity:0;stroke-width:0.136364"
         d="m 111.07095,603.68393 c 0.013,-8.26116 0.0348,-9.16893 0.19405,-8.07954 0.48437,3.3136 2.25647,6.89502 4.88895,9.88059 1.00364,1.13825 2.58494,2.56133 3.04627,2.74145 0.36304,0.14175 0.38609,0.23344 0.64925,2.5825 0.13472,1.20263 0.15876,1.85677 0.0693,1.88665 -0.0753,0.0252 -0.10222,0.10186 -0.0598,0.17045 0.046,0.0744 -1.71401,0.12472 -4.36278,0.12472 h -4.43987 z m 9.44688,9.12248 c -0.11222,-0.12834 -0.1028,-0.50707 0.0359,-1.44417 0.19162,-1.29442 0.55664,-3.16719 0.62426,-3.20278 1.07005,-0.56315 3.43057,-2.9684 4.50995,-4.5954 1.39247,-2.09897 2.39374,-4.55937 2.91323,-7.15867 0.17777,-0.88952 0.24184,-1.86035 0.24184,-3.66464 0,-2.82163 -0.17566,-3.94091 -1.02387,-6.524 -1.13353,-3.45199 -2.65916,-6.0433 -5.15079,-8.74873 -1.10855,-1.20367 -1.67813,-1.95546 -2.15403,-2.84314 l -0.64698,-1.20678 -0.32187,0.72951 c -0.23647,0.53594 -0.62785,1.0132 -1.47508,1.79871 -3.75972,3.48585 -6.17452,8.25624 -6.80563,13.44441 -0.15696,1.29028 -0.17702,0.52491 -0.19189,-7.32044 l -0.0166,-8.76136 h 75 75 l -0.005,14.21591 c -0.005,11.94089 -0.0343,14.14936 -0.18648,13.80006 -0.0996,-0.22872 -0.37614,-0.57995 -0.61449,-0.78051 -1.74293,-1.46658 -4.2261,0.11593 -3.66694,2.33692 0.50212,1.99445 3.38311,2.33709 4.21689,0.50152 0.24835,-0.54674 0.25039,-0.5103 0.25335,4.52837 l 0.003,5.07955 -70.19318,-0.005 c -56.73402,-0.004 -70.22235,-0.0386 -70.34529,-0.17915 z m 75.54151,-1.25909 c 2.75074,-0.70967 4.89287,-2.85073 5.09626,-5.09371 0.14296,-1.57665 -0.8776,-2.93806 -2.45628,-3.27663 -0.38875,-0.0834 -1.67994,-0.23681 -2.86932,-0.34098 -2.30559,-0.20193 -2.68279,-0.33737 -2.68279,-0.96332 0,-0.44268 0.22464,-0.56346 1.36364,-0.73318 1.39836,-0.20837 2.79699,-0.90561 3.59333,-1.79134 0.80239,-0.89244 1.09413,-1.76937 1.07538,-3.23241 l -0.0144,-1.125 h 0.54325 c 1.03,0 1.66608,-0.63044 1.66608,-1.65129 0,-0.56216 -0.10604,-0.60606 -0.75651,-0.31323 -0.80561,0.36268 -1.96461,0.32388 -3.31167,-0.11085 -1.56246,-0.50425 -2.4069,-0.58062 -3.53176,-0.3194 -1.41456,0.32849 -2.55474,0.92795 -3.26271,1.71538 -0.73176,0.81389 -1.04644,1.65639 -1.04644,2.80166 0,1.6525 0.70271,2.94376 1.96703,3.61447 0.34313,0.18204 0.62388,0.39367 0.62388,0.47029 0,0.0766 -0.42955,0.40438 -0.95455,0.72834 -0.77708,0.47952 -0.95454,0.65348 -0.95454,0.93573 0,0.50886 0.44989,1.15118 1.07769,1.53863 0.30323,0.18715 0.55299,0.37446 0.555,0.41624 0.002,0.0418 -0.38712,0.36291 -0.86475,0.71361 -1.73065,1.27073 -2.21007,2.11466 -1.86174,3.27726 0.37214,1.24212 1.37438,2.21937 2.77105,2.70196 0.92065,0.31812 3.07379,0.33732 4.23488,0.0378 z m -2.60916,-1.61324 c -1.77819,-0.57778 -2.60228,-2.24145 -1.73934,-3.51138 0.36038,-0.53035 1.04132,-1.01316 1.69218,-1.19983 0.53985,-0.15482 3.15513,0.0649 3.96192,0.33289 0.95862,0.31841 1.40437,0.85046 1.48038,1.76701 0.0853,1.02829 -0.35191,1.77807 -1.35836,2.32964 -0.64524,0.35361 -0.878,0.40202 -2.08975,0.43458 -0.88803,0.0239 -1.56711,-0.0295 -1.94703,-0.15291 z m 0.31067,-10.23077 c -0.77676,-0.28262 -1.35986,-1.01313 -1.64267,-2.05794 -0.573,-2.11683 0.30907,-3.88189 1.93994,-3.88189 0.79973,0 1.38962,0.26586 1.91333,0.86232 0.53582,0.61028 0.71947,1.2434 0.72045,2.48378 0.001,1.57844 -0.69415,2.60468 -1.85195,2.73303 -0.29351,0.0325 -0.7791,-0.0302 -1.0791,-0.1393 z m -27.17325,4.84558 c 2.61288,-0.89896 3.91741,-2.46052 4.34208,-5.1976 0.40697,-2.62296 -0.88384,-5.29394 -3.05473,-6.32093 -2.96294,-1.4017 -7.22313,-0.0117 -8.59947,2.80574 -1.21731,2.49191 -0.4869,6.30018 1.49885,7.81478 1.57674,1.20264 3.88946,1.5599 5.81327,0.89801 z m -2.48585,-1.38736 c -1.51534,-0.68594 -2.45921,-2.32575 -2.66526,-4.63044 -0.23562,-2.63555 0.75226,-4.42972 2.53324,-4.60085 1.98192,-0.19044 3.61162,1.3054 4.0918,3.75569 0.21791,1.11199 0.10987,3.32979 -0.19753,4.05482 -0.64826,1.529 -2.2156,2.1209 -3.76225,1.42078 z m 46.53534,1.51944 c 1.79174,-0.45825 2.79638,-1.09623 3.7379,-2.3737 0.79681,-1.08112 1.13586,-2.22712 1.13586,-3.83925 0,-3.25334 -1.77866,-5.46019 -4.79188,-5.94545 -1.74503,-0.28103 -4.04661,0.38064 -5.51804,1.58636 -2.79378,2.2893 -2.5521,7.69815 0.43583,9.7539 1.44403,0.99353 3.19465,1.27995 5.00033,0.81814 z m -1.78453,-1.40163 c -0.72856,-0.24452 -1.74222,-1.25752 -2.19663,-2.19521 -0.9835,-2.02947 -0.86755,-5.19037 0.23512,-6.40973 1.02895,-1.13783 3.24939,-0.97269 4.48741,0.33374 1.20902,1.27583 1.7469,4.06635 1.19363,6.1926 -0.2545,0.97809 -0.44608,1.28998 -1.09754,1.78687 -0.39987,0.305 -0.65905,0.38502 -1.33235,0.41134 -0.45974,0.018 -1.04008,-0.0358 -1.28964,-0.11961 z m -29.45872,1.29205 c 0.0753,-0.0753 0.11706,-0.34411 0.0928,-0.59739 -0.0409,-0.42809 -0.0914,-0.47221 -0.71647,-0.62647 -0.36984,-0.0913 -0.74901,-0.24468 -0.8426,-0.34091 -0.25448,-0.26164 -0.39212,-6.55053 -0.15738,-7.19051 0.3014,-0.82173 1.89985,-1.414 3.17204,-1.17534 0.63459,0.11905 1.50539,0.90498 1.71976,1.55216 0.21955,0.66283 0.25563,6.62549 0.0414,6.84083 -0.0816,0.082 -0.44976,0.22348 -0.81818,0.3144 -0.61908,0.15278 -0.67315,0.19959 -0.71325,0.61741 -0.0239,0.24865 0.0169,0.52478 0.0907,0.61363 0.0967,0.11656 0.94423,0.1554 3.0434,0.13948 1.60013,-0.0121 2.95048,-0.0275 3.00077,-0.0341 0.0503,-0.007 0.13446,-0.20791 0.18705,-0.44733 0.11773,-0.53605 -0.20335,-0.84875 -1.00278,-0.97658 -0.90269,-0.14435 -0.903,-0.1456 -0.99427,-4.09747 -0.093,-4.02891 -0.16877,-4.40386 -1.10374,-5.46605 -0.8195,-0.931 -1.4636,-1.22275 -2.70043,-1.22316 -1.15574,-4.1e-4 -1.81581,0.24079 -3.14819,1.15026 -0.43676,0.29813 -0.82887,0.48583 -0.87135,0.41709 -0.0425,-0.0687 -0.0431,-0.3588 -0.001,-0.6446 0.12528,-0.85809 -0.0401,-0.96507 -1.05165,-0.68031 -0.4726,0.13304 -1.44222,0.36532 -2.15472,0.51619 -0.7125,0.15086 -1.37847,0.35586 -1.47993,0.45555 -0.34566,0.33963 -0.054,0.71119 0.81282,1.03534 1.28142,0.47922 1.25371,0.37462 1.19053,4.49446 -0.061,3.97831 -0.0334,3.87349 -1.08062,4.10877 -0.32735,0.0736 -0.64178,0.20702 -0.69872,0.29659 -0.14589,0.22948 -0.13257,0.83345 0.0218,0.98786 0.17635,0.17641 5.98389,0.13889 6.16259,-0.0398 z m -38.46011,-0.1308 c 0.0791,-0.0791 0.12375,-0.31646 0.0991,-0.52738 -0.0391,-0.33477 -0.13103,-0.4054 -0.72394,-0.55596 -0.37355,-0.0949 -0.75707,-0.279 -0.85227,-0.40919 -0.12947,-0.17706 -0.17309,-1.13901 -0.17309,-3.81734 v -3.58064 l 0.45255,-0.34517 c 0.99252,-0.75704 2.5963,-0.98927 3.50413,-0.50742 0.79272,0.42077 1.1109,1.17496 1.22672,2.90776 0.0548,0.82019 0.0678,2.32537 0.0289,3.34485 -0.0796,2.08694 -0.15121,2.24906 -1.06866,2.42054 -0.65632,0.12266 -0.87095,0.29228 -0.87095,0.68829 0,0.16913 0.0767,0.36832 0.17045,0.44264 0.10058,0.0797 1.33096,0.13358 3.00131,0.13136 3.05979,-0.004 3.1588,-0.0275 3.07673,-0.72809 -0.0379,-0.32389 -0.13517,-0.39828 -0.71193,-0.54474 -0.3674,-0.0933 -0.74533,-0.25035 -0.83986,-0.34903 -0.12723,-0.13282 -0.18394,-1.14919 -0.21837,-3.91404 l -0.0465,-3.73462 0.74615,-0.38174 c 1.73463,-0.88745 3.28098,-0.5573 4.05942,0.86672 0.20533,0.37561 0.24609,0.89433 0.28297,3.60142 0.0282,2.06852 -0.007,3.257 -0.10293,3.43544 -0.0842,0.15739 -0.41981,0.34984 -0.79308,0.45482 -0.60986,0.17152 -0.64951,0.21118 -0.6894,0.68956 -0.0233,0.27916 0.007,0.51006 0.0682,0.5131 0.0608,0.003 1.39118,0.0101 2.95644,0.0156 3.06385,0.0109 3.12552,-0.003 3.05303,-0.70296 -0.0293,-0.28231 -0.14325,-0.36755 -0.66309,-0.49589 -1.30063,-0.32108 -1.21301,-0.0736 -1.21418,-3.42937 -10e-4,-4.07995 -0.21549,-5.19819 -1.21255,-6.33377 -0.6474,-0.73735 -1.52718,-1.11313 -2.60072,-1.11085 -1.07749,0.002 -2.0163,0.34314 -3.34036,1.21279 l -0.94134,0.61827 -0.62387,-0.6541 c -1.50801,-1.58106 -3.18446,-1.59179 -5.64764,-0.0362 -0.47658,0.30099 -0.9059,0.54725 -0.95404,0.54725 -0.0481,0 -0.0875,-0.33943 -0.0875,-0.75428 0,-0.52164 -0.059,-0.77694 -0.19139,-0.82773 -0.10527,-0.0404 -0.59142,0.0501 -1.08035,0.20113 -0.48892,0.15101 -1.36927,0.37327 -1.95633,0.49389 -1.70432,0.3502 -1.85775,0.77321 -0.4647,1.28114 1.30335,0.47522 1.277,0.37801 1.21428,4.47962 -0.0373,2.43788 -0.10513,3.60505 -0.22175,3.81478 -0.1029,0.18504 -0.39179,0.358 -0.74526,0.44619 -0.31747,0.0792 -0.66927,0.19493 -0.78177,0.25719 -0.24983,0.13825 -0.34309,0.65443 -0.15844,0.87694 0.17747,0.21384 5.82197,0.21305 6.03587,-8.2e-4 z m 89.45288,-0.21272 c 4.45278,-1.18041 6.96148,-4.19698 7.17163,-8.62348 0.0898,-1.89178 -0.15387,-3.12659 -0.92616,-4.69287 -0.98326,-1.99417 -2.6031,-3.33874 -4.96214,-4.11889 -0.92644,-0.30638 -1.12397,-0.31705 -6.70825,-0.36228 l -5.7537,-0.0466 -0.21221,0.41037 c -0.29247,0.56557 -0.26591,0.81635 0.0946,0.89321 0.16875,0.036 0.65843,0.13328 1.08817,0.21624 0.56982,0.11 0.85721,0.24727 1.06156,0.50706 0.27549,0.35022 0.27955,0.47179 0.24138,7.21449 -0.0383,6.76291 -0.0428,6.86225 -0.32564,7.14496 -0.15775,0.15769 -0.5434,0.32112 -0.857,0.36319 -0.63837,0.0856 -1.14574,0.58163 -1.07817,1.05403 0.0355,0.24819 0.16658,0.29053 1.13106,0.3654 0.6,0.0466 2.8091,0.0705 4.9091,0.0532 3.60119,-0.0297 3.89249,-0.0511 5.12576,-0.37807 z m -4.17122,-1.37443 c -0.84198,-0.27587 -1.13863,-0.47304 -1.36222,-0.90542 -0.17549,-0.33934 -0.20596,-1.38727 -0.20596,-7.08207 v -6.68379 l 0.29601,-0.15842 c 0.49847,-0.26677 3.54916,-0.0846 4.61308,0.27544 1.66331,0.56291 3.03621,1.69963 3.81301,3.15705 0.64137,1.20335 0.8333,1.95801 0.91805,3.60976 0.18497,3.60525 -1.10816,6.28685 -3.59719,7.45954 -0.84677,0.39895 -1.06258,0.4409 -2.42932,0.47223 -0.95892,0.022 -1.69676,-0.0301 -2.04546,-0.14432 z m 22.46257,1.62602 c 2.57276,-0.49225 4.46103,-1.77443 5.33384,-3.6218 0.35844,-0.75866 0.41723,-1.03881 0.41723,-1.98833 0,-0.92959 -0.0597,-1.22732 -0.37585,-1.87342 -0.46598,-0.95245 -1.32553,-1.72477 -2.47868,-2.22713 -0.485,-0.2113 -0.88184,-0.43031 -0.88184,-0.48669 0,-0.0564 0.17193,-0.19143 0.38208,-0.3001 0.52842,-0.27326 1.50346,-1.35929 1.76452,-1.96538 0.12588,-0.29225 0.2156,-0.87609 0.21409,-1.39294 -0.006,-2.16545 -1.49041,-3.6787 -3.99705,-4.07576 -0.65797,-0.10422 -8.87762,-0.12306 -9.69937,-0.0222 -0.15139,0.0186 -0.42518,0.81708 -0.34859,1.01667 0.0434,0.11318 0.3738,0.23313 0.79962,0.29031 1.16253,0.15611 1.58217,0.38311 1.68064,0.9091 0.0467,0.24944 0.0657,3.44337 0.0422,7.0976 -0.0489,7.60877 0.0491,7.07256 -1.3392,7.33056 -0.81178,0.15085 -1.22622,0.49868 -1.22622,1.02912 0,0.17294 0.0767,0.34539 0.17046,0.38322 0.0937,0.0378 2.05198,0.0736 4.35164,0.0795 3.07915,0.008 4.44721,-0.0401 5.19047,-0.18234 z m -2.49831,-1.43652 c -1.5303,-0.27952 -1.64195,-0.59058 -1.59319,-4.43855 l 0.038,-3 0.81818,-0.0424 c 1.1337,-0.0587 2.8306,0.18948 3.5908,0.52524 1.26168,0.55725 2.04577,1.64261 2.16908,3.00249 0.21106,2.32769 -1.12444,3.87862 -3.45589,4.01334 -0.51719,0.0299 -1.22234,0.003 -1.567,-0.0601 z m -1.62126,-11.83628 c 0.001,-1.55625 0.0605,-2.92159 0.1318,-3.03409 0.20224,-0.31891 2.32595,-0.2326 3.30681,0.13439 1.61644,0.60479 2.36585,2.20617 1.86929,3.99433 -0.19476,0.7013 -0.86242,1.42602 -1.46894,1.59448 -0.27507,0.0764 -1.25185,0.13926 -2.1706,0.13967 l -1.67045,8.2e-4 0.002,-2.82954 z m 13.25803,12.78483 c -1.2053,-0.73489 -1.32075,-2.39694 -0.22628,-3.25784 0.80266,-0.63138 2.10599,-0.48682 2.70625,0.30016 0.50655,0.66413 0.57103,1.39386 0.18808,2.12867 -0.53634,1.02916 -1.73097,1.40035 -2.66805,0.82901 z m 0.53846,-0.77429 c 0.057,-0.67387 0.33859,-0.73024 0.59403,-0.11889 0.2007,0.48032 0.52882,0.74373 0.7059,0.56666 0.0477,-0.0477 -0.0171,-0.30454 -0.14407,-0.57074 -0.20737,-0.43486 -0.20985,-0.51391 -0.0244,-0.77863 0.2625,-0.37478 0.26647,-1.10521 0.007,-1.32041 -0.10955,-0.0909 -0.45639,-0.19982 -0.77075,-0.24198 -0.78685,-0.10554 -0.93914,0.1344 -0.93914,1.47972 0,1.16337 0.0752,1.48509 0.34726,1.48509 0.11073,0 0.19826,-0.19568 0.22405,-0.50082 z m 0.0612,-1.34009 c -0.11647,-0.30351 0.0452,-0.61363 0.31992,-0.61363 0.37765,0 0.62015,0.36188 0.41121,0.61363 -0.0934,0.1125 -0.2784,0.20455 -0.41121,0.20455 -0.13279,0 -0.27675,-0.0921 -0.31992,-0.20455 z"
         id="path2689" />
      <path
         style="fill:#9bf8b2;fill-opacity:1;stroke-width:0.136364"
         d="m 119.85895,612.86603 c -0.0424,-0.0686 -0.0155,-0.1453 0.0598,-0.17045 0.0894,-0.0299 0.0654,-0.68402 -0.0693,-1.88665 -0.26316,-2.34906 -0.28621,-2.44075 -0.64925,-2.5825 -0.46133,-0.18012 -2.04263,-1.6032 -3.04627,-2.74145 -2.22121,-2.51914 -3.78358,-5.3386 -4.53137,-8.17732 -0.33483,-1.27105 -0.47612,-2.2252 -0.31474,-2.12546 0.0669,0.0413 0.16329,0.38942 0.21425,0.77353 0.051,0.38411 0.24914,1.19855 0.44041,1.80988 1.02175,3.26557 2.76256,6.05945 5.38568,8.64359 1.26312,1.24436 1.6967,1.58734 1.8707,1.4798 0.13267,-0.082 0.37628,-1.20586 0.55993,-2.5832 0.0686,-0.51422 0.15408,-0.96437 0.19003,-1.00032 0.12406,-0.12406 0.32393,0.43755 0.41783,1.17407 0.14892,1.16808 0.67029,2.19302 1.11556,2.19302 0.27206,0 2.57017,-2.2473 3.31451,-3.24122 3.50556,-4.68099 4.73828,-10.83715 3.29113,-16.4358 -1.15003,-4.44917 -2.69447,-7.28114 -5.77848,-10.59571 -0.66293,-0.7125 -1.48651,-1.77441 -1.83018,-2.35981 l -0.62484,-1.06435 -0.16965,0.40348 c -0.0933,0.22191 -0.92681,1.1611 -1.85222,2.08708 -2.40416,2.40564 -3.85373,4.58169 -5.02294,7.54031 -0.50631,1.28117 -1.16263,3.76316 -1.29996,4.91602 -0.13153,1.10418 -0.35764,1.46669 -0.25517,0.40909 0.10282,-1.06113 0.64025,-3.35646 1.09632,-4.68227 1.11156,-3.23134 3.14199,-6.3317 5.69967,-8.70307 0.84723,-0.78551 1.23861,-1.26277 1.47508,-1.79871 l 0.32187,-0.72951 0.64698,1.20678 c 0.4759,0.88768 1.04548,1.63947 2.15403,2.84314 2.49163,2.70543 4.01726,5.29674 5.15079,8.74873 0.84821,2.58309 1.02387,3.70237 1.02387,6.524 0,1.80429 -0.0641,2.77512 -0.24184,3.66464 -0.51934,2.59851 -1.52023,5.05838 -2.91279,7.15867 -0.86435,1.30362 -3.12335,3.71525 -3.97623,4.24487 -0.61283,0.38056 -0.67517,0.55162 -1.04346,2.86364 -0.1135,0.7125 -0.23482,1.4642 -0.26962,1.67045 -0.0348,0.20625 -0.003,0.375 0.0697,0.375 0.0731,0 0.13295,0.0614 0.13295,0.13637 0,0.17079 -0.63825,0.1808 -0.7428,0.0116 z m 71.96551,-1.35648 c -1.39667,-0.48259 -2.39891,-1.45984 -2.77105,-2.70196 -0.34833,-1.1626 0.13109,-2.00653 1.86174,-3.27726 0.47763,-0.3507 0.86677,-0.67182 0.86475,-0.71361 -0.002,-0.0418 -0.25177,-0.22909 -0.555,-0.41624 -0.6278,-0.38745 -1.07769,-1.02977 -1.07769,-1.53863 0,-0.28225 0.17746,-0.45621 0.95454,-0.93573 0.525,-0.32396 0.95455,-0.65172 0.95455,-0.72834 0,-0.0766 -0.28075,-0.28825 -0.62388,-0.47029 -1.26432,-0.67071 -1.96703,-1.96197 -1.96703,-3.61447 0,-2.28437 1.50975,-3.86696 4.30915,-4.51704 1.12486,-0.26122 1.9693,-0.18485 3.53176,0.3194 1.34706,0.43473 2.50606,0.47353 3.31167,0.11085 0.65047,-0.29283 0.75651,-0.24893 0.75651,0.31323 0,1.02085 -0.63608,1.65129 -1.66608,1.65129 h -0.54325 l 0.0144,1.125 c 0.0187,1.46304 -0.27299,2.33997 -1.07538,3.23241 -0.79634,0.88573 -2.19497,1.58297 -3.59333,1.79134 -1.139,0.16972 -1.36364,0.2905 -1.36364,0.73318 0,0.62595 0.3772,0.76139 2.68279,0.96332 1.18938,0.10417 2.48057,0.25761 2.86932,0.34098 1.57868,0.33857 2.59924,1.69998 2.45628,3.27663 -0.20339,2.24298 -2.34552,4.38404 -5.09626,5.09371 -1.16109,0.29955 -3.31423,0.28035 -4.23488,-0.0378 z m 3.64093,-0.0779 c 1.26641,-0.23032 2.12351,-0.59618 3.20556,-1.36832 1.94677,-1.38918 2.76118,-3.56474 1.95661,-5.22676 -0.57574,-1.18933 -1.48155,-1.51142 -5.08011,-1.8064 -1.76277,-0.14451 -2.43011,-0.33789 -2.58826,-0.75003 -0.2953,-0.76952 0.12499,-1.137 1.5639,-1.36739 1.94372,-0.31123 3.48494,-1.32078 4.08859,-2.67818 0.26546,-0.59693 0.32154,-0.95577 0.32582,-2.08468 l 0.005,-1.36364 0.86365,-0.0687 c 0.95745,-0.0762 1.18311,-0.25433 1.3328,-1.05225 0.11068,-0.59001 0.0356,-0.65184 -0.47246,-0.3891 -0.65463,0.33852 -2.10204,0.27942 -3.30238,-0.13484 -1.34815,-0.46527 -2.67621,-0.56542 -3.77179,-0.28442 -2.8626,0.7342 -4.26018,2.54317 -3.86425,5.00169 0.19469,1.20891 0.712,1.99104 1.72018,2.6008 0.44684,0.27025 0.83184,0.5902 0.85557,0.711 0.0285,0.14535 -0.27798,0.42548 -0.90621,0.82816 -0.52215,0.33469 -0.98895,0.6726 -1.03735,0.75091 -0.1278,0.20678 0.26526,0.89582 0.70398,1.23408 0.20804,0.16041 0.53167,0.41156 0.71917,0.55811 l 0.3409,0.26646 -0.3602,0.30723 c -0.19811,0.16898 -0.73882,0.60345 -1.20158,0.96549 -1.0085,0.78899 -1.36987,1.33612 -1.36653,2.06902 0.007,1.50834 1.35242,2.86147 3.26922,3.28766 0.99264,0.2207 1.76233,0.21919 3,-0.006 z m -1.67257,-1.1715 c -1.77694,-0.4485 -2.89527,-1.79717 -2.63604,-3.17898 0.1137,-0.60609 0.89744,-1.49903 1.62476,-1.85111 1.06825,-0.51713 3.89637,-0.31752 5.17022,0.36491 1.75512,0.94027 1.49722,3.3021 -0.47046,4.30841 -0.63976,0.32718 -0.97113,0.40109 -1.97199,0.43982 -0.66165,0.0256 -1.43408,-0.0118 -1.71649,-0.0831 z m 3.69414,-0.60769 c 1.00645,-0.55157 1.44363,-1.30135 1.35836,-2.32964 -0.11423,-1.37748 -0.99135,-1.89106 -3.58407,-2.09858 -1.54996,-0.12406 -1.97857,-0.0601 -2.73707,0.40873 -1.47738,0.91307 -1.54435,2.67235 -0.14243,3.74165 0.76468,0.58325 1.48549,0.75354 3.01546,0.71242 1.21175,-0.0326 1.44451,-0.081 2.08975,-0.43458 z m -3.99884,-9.83065 c -0.96477,-0.50177 -1.47698,-1.30169 -1.6932,-2.64427 -0.13699,-0.85066 -0.0259,-1.92269 0.25334,-2.44444 0.0737,-0.13769 0.34614,-0.43663 0.60544,-0.6643 1.16534,-1.02318 3.11407,-0.52969 3.89452,0.98625 0.29859,0.57999 0.34899,0.85569 0.34899,1.90909 0,1.45609 -0.34084,2.33582 -1.08259,2.79424 -0.55114,0.34063 -1.73164,0.37281 -2.3265,0.0634 z m 2.23819,-0.29492 c 0.61187,-0.44514 0.96645,-1.33281 0.96559,-2.41726 -9.5e-4,-1.24038 -0.18463,-1.8735 -0.72045,-2.48378 -1.08383,-1.23441 -2.90154,-1.14085 -3.67841,0.18934 -0.61806,1.05826 -0.36485,3.21753 0.49226,4.19781 0.75655,0.86527 2.12852,1.105 2.94101,0.51389 z m -32.30056,5.27083 c -1.52472,-0.26839 -2.81503,-1.06011 -3.60511,-2.21206 -1.29409,-1.88682 -1.52486,-4.74399 -0.54516,-6.74951 1.37634,-2.81747 5.63653,-4.20744 8.59947,-2.80574 4.1919,1.98308 4.14211,8.89003 -0.0795,11.02746 -1.3977,0.70766 -3.00577,0.97993 -4.36971,0.73985 z m 3.47508,-0.59317 c 2.28182,-0.85524 3.62337,-2.67194 3.83669,-5.19557 0.32248,-3.8149 -2.29076,-6.57607 -5.95395,-6.291 -1.83051,0.14245 -3.30332,0.80774 -4.41195,1.99297 -0.97051,1.03754 -1.35838,1.98729 -1.42623,3.49224 -0.0306,0.67931 0.0145,1.57307 0.10022,1.98613 0.46706,2.24981 2.0402,3.90271 4.13838,4.34819 0.99938,0.21218 2.65905,0.0635 3.71684,-0.33296 z m -2.64019,-0.73882 c -1.34405,-0.47858 -2.52459,-2.02871 -2.89167,-3.79695 -0.0882,-0.42502 -0.1362,-1.41315 -0.10737,-2.21175 0.0465,-1.289 0.0955,-1.52329 0.4575,-2.18891 0.24955,-0.45887 0.63268,-0.90442 0.99667,-1.15909 0.52687,-0.36861 0.69774,-0.41324 1.56819,-0.40964 1.12357,0.005 1.81272,0.29543 2.62469,1.1074 1.68466,1.68465 2.08787,5.96617 0.73429,7.79698 -0.70087,0.94799 -2.12293,1.31039 -3.3823,0.86196 z m 2.19777,-0.20814 c 1.0909,-0.46676 1.60837,-1.49634 1.70369,-3.38979 0.11739,-2.33179 -0.40468,-3.97574 -1.60542,-5.05531 -1.1223,-1.00904 -2.68688,-1.20043 -3.79869,-0.46466 -1.95001,1.29045 -1.74548,6.20934 0.33967,8.16902 0.88074,0.82774 2.38337,1.15894 3.36075,0.74074 z m 41.55244,1.54668 c -2.41818,-0.42953 -3.98928,-1.93939 -4.56675,-4.38872 -0.58137,-2.46587 0.1134,-4.9599 1.75683,-6.30657 1.47143,-1.20572 3.77301,-1.86739 5.51804,-1.58636 3.01322,0.48526 4.79188,2.69211 4.79188,5.94545 0,1.61213 -0.33905,2.75813 -1.13586,3.83925 -0.94152,1.27747 -1.94616,1.91545 -3.7379,2.3737 -1.08625,0.27782 -1.61608,0.30268 -2.62624,0.12325 z m 2.63138,-0.33471 c 2.62474,-0.68366 4.21237,-2.40719 4.61691,-5.01211 0.43413,-2.79547 -0.93287,-5.47586 -3.26011,-6.39237 -1.13243,-0.44596 -3.1423,-0.4455 -4.44597,0.001 -1.93052,0.66125 -3.36397,2.04871 -3.82921,3.70636 -0.2407,0.85763 -0.2762,2.7562 -0.0684,3.65763 0.34459,1.49469 1.40239,2.95857 2.56732,3.55287 1.31511,0.67092 2.99967,0.85639 4.41945,0.48659 z m -1.6532,-0.95386 c -1.74541,-0.54469 -2.8185,-2.12121 -3.17153,-4.65939 -0.25975,-1.86755 0.11251,-3.42822 1.03864,-4.35434 0.86649,-0.8665 1.72999,-1.05133 3.07314,-0.6578 1.00092,0.29325 2.14361,1.43921 2.56911,2.57646 0.66907,1.78826 0.68,4.35257 0.024,5.63838 -0.50191,0.98382 -1.59103,1.67399 -2.60249,1.64918 -0.1875,-0.005 -0.60641,-0.0912 -0.93091,-0.19249 z m 2.48552,-0.52804 c 0.65146,-0.49689 0.84304,-0.80878 1.09754,-1.78687 0.55327,-2.12625 0.0154,-4.91677 -1.19363,-6.1926 -1.23802,-1.30643 -3.45846,-1.47157 -4.48741,-0.33374 -0.45802,0.50649 -0.81666,1.56663 -0.8895,2.62935 -0.14832,2.16395 0.49822,4.1159 1.73018,5.22354 0.81234,0.73037 1.32085,0.91425 2.41047,0.87166 0.6733,-0.0263 0.93248,-0.10634 1.33235,-0.41134 z m -38.2433,1.62359 c -0.15435,-0.15441 -0.16767,-0.75838 -0.0218,-0.98786 0.057,-0.0896 0.37137,-0.22304 0.69872,-0.29659 1.04719,-0.23529 1.01962,-0.13046 1.08063,-4.10877 0.0632,-4.11984 0.0909,-4.01524 -1.19054,-4.49446 -0.86678,-0.32415 -1.15848,-0.69571 -0.81281,-1.03534 0.10145,-0.0997 0.76742,-0.30469 1.47992,-0.45555 0.7125,-0.15087 1.68213,-0.38315 2.15472,-0.51619 1.01156,-0.28476 1.17694,-0.17778 1.05165,0.68031 -0.0417,0.2858 -0.0411,0.57587 0.001,0.6446 0.0425,0.0687 0.43459,-0.11896 0.87136,-0.41709 1.33237,-0.90947 1.99244,-1.15064 3.14819,-1.15026 1.23682,4.1e-4 1.88092,0.29216 2.70042,1.22316 0.93497,1.06219 1.01069,1.43714 1.10374,5.46605 0.0913,3.95187 0.0916,3.95312 0.99427,4.09747 0.79943,0.12783 1.12052,0.44053 1.00278,0.97658 -0.0526,0.23942 -0.13676,0.44072 -0.18705,0.44733 -0.0503,0.007 -1.40064,0.022 -3.00077,0.0341 -2.09917,0.0159 -2.94666,-0.0229 -3.04339,-0.13948 -0.0737,-0.0888 -0.11454,-0.36499 -0.0907,-0.61363 0.0401,-0.41782 0.0942,-0.46463 0.71325,-0.61741 0.36842,-0.0909 0.7366,-0.2324 0.81818,-0.3144 0.21424,-0.21534 0.17816,-6.178 -0.0414,-6.84083 -0.21437,-0.64718 -1.08517,-1.43311 -1.71976,-1.55216 -1.27218,-0.23866 -2.87063,0.35361 -3.17204,1.17534 -0.23474,0.63998 -0.0971,6.92887 0.15738,7.19051 0.0936,0.0962 0.47276,0.24964 0.84261,0.34091 0.62508,0.15426 0.67554,0.19838 0.71646,0.62647 0.0242,0.25328 -0.0176,0.52211 -0.0928,0.59739 -0.17871,0.1787 -5.98624,0.21622 -6.16259,0.0398 z m 6.08678,-0.41408 c 0.10649,-0.42431 -0.0204,-0.61546 -0.40852,-0.61546 -0.57401,0 -1.18765,-0.29774 -1.31749,-0.63925 -0.0696,-0.18318 -0.12663,-1.88555 -0.12663,-3.78306 0,-3.23056 0.0171,-3.47181 0.26969,-3.79286 0.44388,-0.5643 1.44965,-0.9642 2.45758,-0.97715 1.15772,-0.0149 1.96052,0.40568 2.45283,1.28494 0.33513,0.59853 0.34357,0.68305 0.38573,3.86075 0.0493,3.7172 0.0267,3.813 -0.94726,4.0056 -0.6109,0.12081 -0.89618,0.4129 -0.75714,0.77521 0.0775,0.20201 0.39238,0.22193 2.98761,0.18899 l 2.90096,-0.0368 v -0.394 c 0,-0.35605 -0.0624,-0.40984 -0.64781,-0.55849 -1.16806,-0.29658 -1.19184,-0.35168 -1.20183,-2.78455 -0.0203,-4.93308 -0.27488,-6.20105 -1.45358,-7.23859 -0.77972,-0.68633 -1.35544,-0.86963 -2.47744,-0.78875 -0.97716,0.0704 -1.91542,0.46676 -3.03306,1.28118 -0.34755,0.25326 -0.69746,0.46047 -0.77759,0.46047 -0.0835,0 -0.16301,-0.364 -0.18627,-0.85227 -0.0322,-0.67577 -0.083,-0.84208 -0.24515,-0.80306 -0.1125,0.0271 -0.91022,0.22199 -1.77272,0.43316 -0.8625,0.21117 -1.73694,0.42031 -1.94319,0.46475 -0.61351,0.1322 -0.43696,0.45381 0.47728,0.86943 0.46875,0.21309 0.93156,0.48391 1.02848,0.6018 0.13427,0.16336 0.17636,1.08383 0.17688,3.86825 8.1e-4,4.18295 -0.009,4.22029 -1.11512,4.48826 -0.53864,0.13044 -0.60603,0.19085 -0.6439,0.57721 l -0.0423,0.43153 h 2.9389 2.93891 z m -44.42017,0.24432 c -0.18465,-0.22251 -0.0914,-0.73869 0.15844,-0.87694 0.1125,-0.0623 0.4643,-0.17799 0.78177,-0.25719 0.35347,-0.0882 0.64236,-0.26115 0.74526,-0.44619 0.11662,-0.20973 0.18447,-1.3769 0.22175,-3.81478 0.0627,-4.10161 0.0891,-4.0044 -1.21428,-4.47962 -1.39305,-0.50793 -1.23962,-0.93094 0.4647,-1.28114 0.58706,-0.12062 1.46741,-0.34288 1.95633,-0.49389 0.48893,-0.15101 0.97508,-0.24152 1.08035,-0.20113 0.13236,0.0508 0.19139,0.30609 0.19139,0.82773 0,0.41485 0.0394,0.75428 0.0875,0.75428 0.0481,0 0.47746,-0.24626 0.95404,-0.54725 1.25359,-0.79171 2.16558,-1.12433 3.11751,-1.137 1.02716,-0.0137 1.69229,0.29473 2.53013,1.17315 l 0.62387,0.6541 0.94134,-0.61827 c 1.32406,-0.86965 2.26287,-1.2105 3.34036,-1.21279 1.07354,-0.002 1.95332,0.3735 2.60072,1.11085 0.99706,1.13558 1.21113,2.25382 1.21255,6.33377 0.001,3.35578 -0.0865,3.10829 1.21418,3.42937 0.51984,0.12834 0.63383,0.21358 0.66309,0.49589 0.0725,0.69963 0.0108,0.71383 -3.05303,0.70296 -1.56526,-0.006 -2.89566,-0.0126 -2.95644,-0.0156 -0.0608,-0.003 -0.0915,-0.23394 -0.0682,-0.5131 0.0399,-0.47838 0.0795,-0.51804 0.6894,-0.68956 0.37327,-0.10498 0.70885,-0.29743 0.79308,-0.45482 0.0955,-0.17844 0.13111,-1.36692 0.10293,-3.43544 -0.0369,-2.70709 -0.0776,-3.22581 -0.28297,-3.60142 -0.77844,-1.42402 -2.32479,-1.75417 -4.05942,-0.86672 l -0.74615,0.38174 0.0465,3.73462 c 0.0344,2.76485 0.0911,3.78122 0.21837,3.91404 0.0945,0.0987 0.47246,0.25575 0.83986,0.34903 0.57676,0.14646 0.67399,0.22085 0.71193,0.54474 0.0821,0.70061 -0.0169,0.72404 -3.07673,0.72809 -1.67035,0.002 -2.90073,-0.0516 -3.00131,-0.13136 -0.0937,-0.0743 -0.17045,-0.27351 -0.17045,-0.44264 0,-0.39601 0.21463,-0.56563 0.87095,-0.68829 0.91745,-0.17147 0.98903,-0.3336 1.06866,-2.42054 0.0389,-1.01948 0.0259,-2.52466 -0.0289,-3.34485 -0.11582,-1.7328 -0.434,-2.48699 -1.22672,-2.90776 -0.90783,-0.48185 -2.51161,-0.24962 -3.50413,0.50742 l -0.45255,0.34517 v 3.58064 c 0,2.67833 0.0436,3.64028 0.17309,3.81734 0.0952,0.13019 0.47872,0.31433 0.85227,0.40919 0.59291,0.15056 0.68487,0.22119 0.72394,0.55596 0.0246,0.21092 -0.02,0.44824 -0.0991,0.52738 -0.2139,0.2139 -5.8584,0.21469 -6.03587,8.2e-4 z m 5.92391,-0.30931 c 0.0872,-0.33339 -0.10346,-0.48985 -0.73539,-0.60354 -0.98853,-0.17784 -1.00239,-0.23266 -1.04814,-4.14384 -0.0277,-2.37148 0.009,-3.60607 0.1134,-3.85925 0.21243,-0.51284 1.55922,-1.2147 2.52148,-1.31401 1.5057,-0.1554 2.59501,0.6568 2.93322,2.18706 0.0993,0.44912 0.1392,1.75465 0.1098,3.58955 -0.0513,3.19976 -0.093,3.34967 -0.9808,3.52783 -0.82421,0.16538 -0.90631,0.21541 -0.90631,0.55219 v 0.33172 h 2.87269 2.87269 l -0.0431,-0.37141 c -0.0366,-0.31499 -0.12817,-0.38812 -0.60276,-0.48136 -0.30779,-0.0605 -0.68799,-0.24659 -0.84489,-0.41361 -0.27386,-0.2915 -0.28622,-0.45336 -0.30882,-4.04275 -0.0266,-4.22912 -0.12952,-3.83667 1.16786,-4.45445 0.50163,-0.23886 0.91803,-0.32502 1.57558,-0.326 1.17558,-0.002 1.98129,0.4727 2.46084,1.44911 0.30584,0.62271 0.32872,0.83744 0.37473,3.51749 0.0644,3.74896 -0.0257,4.03216 -1.38591,4.35866 -0.29784,0.0715 -0.37423,0.15981 -0.34091,0.39414 0.0427,0.30054 0.0565,0.302 2.8384,0.302 h 2.79546 v -0.332 c 0,-0.28435 -0.0978,-0.3569 -0.68182,-0.50551 -1.15695,-0.29441 -1.15909,-0.30154 -1.15909,-3.8594 0,-1.78478 -0.0662,-3.42835 -0.15623,-3.87645 -0.35928,-1.78898 -1.52737,-2.92099 -3.1433,-3.04621 -1.17723,-0.0912 -2.20742,0.3104 -4.22789,1.6483 l -0.36833,0.24389 -0.70336,-0.75571 c -0.43713,-0.46967 -0.93042,-0.84243 -1.30326,-0.98482 -1.12499,-0.42963 -2.59253,-0.0547 -4.3487,1.11095 -0.93166,0.6184 -1.19667,0.50815 -1.13912,-0.47388 0.0343,-0.58528 0.0159,-0.62259 -0.29799,-0.60565 -0.184,0.01 -0.94819,0.17396 -1.69819,0.36451 -0.75,0.19056 -1.53238,0.38304 -1.73863,0.42773 -0.57491,0.12458 -0.45423,0.31006 0.47727,0.73352 0.46875,0.2131 0.93746,0.49101 1.04158,0.61759 0.15157,0.18428 0.18798,0.96734 0.18264,3.9287 -0.008,4.44165 0.0324,4.32094 -1.56513,4.67329 -0.2861,0.0631 -0.375,0.16291 -0.375,0.42102 v 0.33831 h 2.84773 c 2.71527,0 2.85099,-0.0125 2.91774,-0.26771 z m 79.52998,0.42057 c -0.96448,-0.0749 -1.09556,-0.11721 -1.13106,-0.3654 -0.0676,-0.4724 0.4398,-0.96841 1.07817,-1.05403 0.3136,-0.0421 0.69925,-0.2055 0.857,-0.36319 0.28282,-0.28271 0.28734,-0.38205 0.32564,-7.14496 0.0382,-6.7427 0.0341,-6.86427 -0.24138,-7.21449 -0.20435,-0.25979 -0.49174,-0.39706 -1.06156,-0.50706 -0.42974,-0.083 -0.91942,-0.18027 -1.08817,-0.21624 -0.36052,-0.0769 -0.38708,-0.32764 -0.0946,-0.89321 l 0.21221,-0.41037 5.7537,0.0466 c 5.58428,0.0452 5.78181,0.0559 6.70825,0.36228 2.35904,0.78015 3.97888,2.12472 4.96214,4.11889 0.77229,1.56628 1.01598,2.80109 0.92616,4.69287 -0.21015,4.4265 -2.71885,7.44307 -7.17163,8.62348 -1.23327,0.32693 -1.52457,0.34842 -5.12576,0.37807 -2.1,0.0173 -4.3091,-0.007 -4.9091,-0.0532 z m 10.08104,-0.54725 c 2.85071,-0.80131 4.91626,-2.41499 6.023,-4.70538 0.69277,-1.4337 0.91672,-2.66099 0.84431,-4.62698 -0.0492,-1.33544 -0.13079,-1.85621 -0.41773,-2.66609 -0.91412,-2.58002 -2.84511,-4.31944 -5.64873,-5.08834 -1.00804,-0.27645 -1.34547,-0.291 -6.44835,-0.27789 -5.35275,0.0137 -5.38607,0.0156 -5.62427,0.30974 -0.13179,0.16276 -0.21003,0.3438 -0.17386,0.40232 0.0362,0.0585 0.47401,0.18343 0.97299,0.27758 0.63721,0.12023 1.03344,0.28392 1.33124,0.54994 l 0.424,0.37875 0.0423,6.11355 c 0.0232,3.36245 0.002,6.50783 -0.0475,6.98973 -0.10939,1.06765 -0.51307,1.5604 -1.40131,1.71046 -0.59938,0.10127 -0.93313,0.46025 -0.78552,0.84491 0.0689,0.17953 0.69897,0.19844 4.95368,0.14863 4.52776,-0.053 4.9517,-0.0787 5.95579,-0.36093 z m -4.10619,-0.89112 c -0.83603,-0.2027 -1.31408,-0.49193 -1.6434,-0.9943 -0.22015,-0.33583 -0.24384,-0.93499 -0.27946,-7.06794 -0.0465,-7.99856 -0.20083,-7.33014 1.70983,-7.40365 5.78915,-0.22273 9.30856,3.93361 8.29557,9.79685 -0.63649,3.68402 -3.05776,5.89261 -6.41558,5.85204 -0.52799,-0.006 -1.27813,-0.0887 -1.66696,-0.183 z m 4.36357,-0.5888 c 2.48903,-1.17269 3.78216,-3.85429 3.59719,-7.45954 -0.0848,-1.65175 -0.27668,-2.40641 -0.91805,-3.60976 -0.7768,-1.45742 -2.1497,-2.59414 -3.81301,-3.15705 -1.06392,-0.36006 -4.11461,-0.54221 -4.61308,-0.27544 l -0.29601,0.15842 v 6.68379 c 0,7.20579 0.005,7.26169 0.71732,7.64456 0.75404,0.40544 1.43895,0.52066 2.89632,0.48725 1.36674,-0.0313 1.58255,-0.0733 2.42932,-0.47223 z m 8.44568,2.05673 c -0.0937,-0.0378 -0.17046,-0.21028 -0.17046,-0.38322 0,-0.53044 0.41444,-0.87827 1.22622,-1.02913 1.38827,-0.25799 1.29031,0.27822 1.3392,-7.33055 0.0235,-3.65423 0.004,-6.84816 -0.0422,-7.0976 -0.0985,-0.52599 -0.51811,-0.75299 -1.68064,-0.9091 -0.42582,-0.0572 -0.75619,-0.17713 -0.79962,-0.29031 -0.0766,-0.19959 0.1972,-0.99809 0.34859,-1.01667 0.82175,-0.10083 9.0414,-0.082 9.69937,0.0222 2.50664,0.39706 3.99065,1.91031 3.99705,4.07576 0.001,0.51685 -0.0882,1.10069 -0.21409,1.39294 -0.26106,0.60609 -1.2361,1.69212 -1.76452,1.96538 -0.21015,0.10867 -0.38208,0.24371 -0.38208,0.3001 0,0.0564 0.39684,0.27539 0.88184,0.48669 1.15315,0.50236 2.0127,1.27468 2.47868,2.22713 0.31612,0.6461 0.37585,0.94383 0.37585,1.87342 0,0.94952 -0.0588,1.22967 -0.41723,1.98833 -0.64937,1.37443 -1.82105,2.41143 -3.4916,3.09023 -1.5444,0.62755 -2.50989,0.72556 -7.03271,0.71391 -2.29966,-0.006 -4.25789,-0.0417 -4.35164,-0.0795 z m 10.07638,-0.4354 c 2.14504,-0.56366 3.84722,-1.78122 4.58205,-3.27755 0.32547,-0.66275 0.37566,-0.92886 0.37566,-1.9922 0,-1.12006 -0.0369,-1.29278 -0.42257,-1.97727 -0.50237,-0.89166 -1.43514,-1.64825 -2.56697,-2.08213 -0.44425,-0.1703 -0.83169,-0.38152 -0.86096,-0.46939 -0.0293,-0.0879 0.13841,-0.25887 0.37268,-0.38001 0.65681,-0.33966 1.49111,-1.15173 1.79479,-1.74702 0.89834,-1.76089 0.10109,-4.07011 -1.69559,-4.91127 -1.22464,-0.57334 -1.89763,-0.63745 -6.69173,-0.63745 -4.69832,0 -4.86147,0.0189 -4.86147,0.56354 0,0.26278 0.16872,0.33181 1.1505,0.47072 0.86624,0.12257 1.25188,0.50208 1.38029,1.35835 0.15827,1.05545 -0.0243,13.01528 -0.20619,13.50905 -0.17563,0.47669 -0.57987,0.70637 -1.45412,0.8262 -0.63337,0.0868 -0.8163,0.22192 -0.89162,0.6585 -0.0449,0.26055 0.0504,0.27643 2.13477,0.35554 3.76869,0.14304 6.67415,0.0441 7.86048,-0.26761 z m -3.62798,-1.04232 c -0.61627,-0.21949 -0.96482,-0.60807 -1.16217,-1.29561 -0.16651,-0.58013 -0.18154,-5.99368 -0.0174,-6.25278 0.17383,-0.27432 3.39663,-0.14512 4.31356,0.17292 1.79378,0.62219 2.73077,1.92244 2.71072,3.76168 -0.0197,1.8029 -0.86415,3.10176 -2.3447,3.60623 -0.78095,0.26609 -2.76218,0.27037 -3.50005,0.008 z m 3.8428,-0.41787 c 1.27824,-0.62539 1.92595,-1.93758 1.77549,-3.59694 -0.12331,-1.35988 -0.9074,-2.44524 -2.16908,-3.00249 -0.7602,-0.33576 -2.4571,-0.58398 -3.5908,-0.52524 l -0.81818,0.0424 -0.038,3 c -0.0488,3.84797 0.0629,4.15903 1.59319,4.43855 1.07075,0.19559 2.42257,0.0473 3.2474,-0.35627 z m -4.97984,-8.54138 c -0.23572,-0.23571 -0.22477,-5.50272 0.0124,-5.97272 0.15993,-0.31693 0.25189,-0.34371 1.30701,-0.38074 1.96542,-0.069 3.3708,0.53298 4.00686,1.71619 0.45825,0.85244 0.56745,1.61743 0.36812,2.57884 -0.13061,0.62993 -0.27817,0.90464 -0.72731,1.3541 -0.33059,0.33082 -0.78869,0.62638 -1.10846,0.71515 -0.75266,0.20895 -3.64699,0.20084 -3.85864,-0.0108 z m 3.95014,-0.24952 c 0.60652,-0.16846 1.27418,-0.89318 1.46894,-1.59448 0.49656,-1.78816 -0.25285,-3.38954 -1.86929,-3.99433 -0.98086,-0.36699 -3.10457,-0.4533 -3.30681,-0.13439 -0.0713,0.1125 -0.13065,1.47784 -0.1318,3.03409 l -0.002,2.82954 1.67046,-8.1e-4 c 0.91875,-4.1e-4 1.89552,-0.0633 2.17059,-0.13968 z m 9.74943,10.60965 c -0.70316,-0.18582 -1.37811,-0.88682 -1.56373,-1.62411 -0.5875,-2.33359 2.10936,-3.87745 3.80728,-2.17953 0.41051,0.41051 0.49095,0.57737 0.43745,0.90735 -0.0378,0.23309 -0.0177,0.33767 0.0474,0.24691 0.0666,-0.0928 0.11295,0.0838 0.11295,0.43016 0,0.32318 -0.0463,0.51675 -0.10294,0.43016 -0.0566,-0.0866 -0.0914,0.0267 -0.0773,0.25166 0.034,0.54337 -0.19749,0.94042 -0.73847,1.26668 -0.57489,0.34672 -1.26648,0.4441 -1.9226,0.27072 z m 1.54801,-0.49067 c 0.65789,-0.34439 1.13228,-1.27124 1.02199,-1.9967 -0.22651,-1.48988 -1.96009,-2.20201 -3.12664,-1.2844 -1.85883,1.46214 0.0109,4.37709 2.10465,3.2811 z m -1.82844,-0.51243 c -0.0455,-0.11863 -0.0828,-0.68986 -0.0828,-1.26939 0,-1.34532 0.15229,-1.58526 0.93914,-1.47972 0.31436,0.0422 0.6612,0.15105 0.77075,0.24198 0.25931,0.2152 0.25534,0.94563 -0.007,1.32041 -0.18542,0.26472 -0.18294,0.34377 0.0244,0.77863 0.12694,0.2662 0.19177,0.52304 0.14407,0.57074 -0.17708,0.17707 -0.5052,-0.0863 -0.7059,-0.56666 -0.25544,-0.61135 -0.53708,-0.55498 -0.59403,0.11889 -0.0438,0.5182 -0.33409,0.68762 -0.48853,0.28512 z m 0.46268,-1.14793 c 0,-0.075 -0.065,-0.13637 -0.14441,-0.13637 -0.0794,0 -0.10649,0.0614 -0.0601,0.13637 0.0464,0.075 0.11134,0.13636 0.14441,0.13636 0.0331,0 0.0601,-0.0614 0.0601,-0.13636 z m 0.81818,-0.47728 c 0.13544,-0.16319 0.13544,-0.2459 0,-0.40909 -0.35726,-0.43047 -0.93027,-0.10985 -0.73113,0.40909 0.0432,0.1125 0.18713,0.20455 0.31992,0.20455 0.13281,0 0.31784,-0.0921 0.41121,-0.20455 z M 111.08794,594.0362 c 0,-0.2625 0.0281,-0.36988 0.0624,-0.23863 0.0343,0.13125 0.0343,0.34602 0,0.47727 -0.0343,0.13125 -0.0624,0.0239 -0.0624,-0.23864 z m 0.003,-2.79545 c 0.002,-0.3 0.0294,-0.40667 0.0621,-0.23705 0.0326,0.16963 0.0314,0.41508 -0.003,0.54546 -0.0341,0.13037 -0.0608,-0.008 -0.0593,-0.30841 z"
         id="path2687" />
      <path
         style="fill:#9bf8b2;fill-opacity:1;stroke-width:0.136364"
         d="m 118.06836,607.10017 c -3.13123,-2.91777 -4.98302,-5.74571 -6.09896,-9.31397 -0.18764,-0.6 -0.38555,-1.39772 -0.43979,-1.77272 -0.0542,-0.375 -0.16468,-0.76446 -0.24543,-0.86546 -0.19827,-0.24803 -0.18863,-4.57531 0.0116,-5.20273 0.0838,-0.2625 0.27571,-1.15227 0.42652,-1.97727 0.36868,-2.01678 0.95154,-3.76033 1.91459,-5.72727 1.09269,-2.23171 2.22527,-3.78316 4.21551,-5.77451 0.92546,-0.92598 1.759,-1.86517 1.85231,-2.08708 l 0.16965,-0.40348 0.62485,1.06435 c 0.34366,0.5854 1.16724,1.64731 1.83018,2.35981 2.5216,2.71012 3.7725,4.70946 4.96503,7.93569 2.49766,6.75709 1.60386,13.64572 -2.47768,19.09582 -0.74434,0.99392 -3.04246,3.24122 -3.31451,3.24122 -0.44528,0 -0.96665,-1.02494 -1.11557,-2.19302 -0.0937,-0.73532 -0.29372,-1.29817 -0.41732,-1.17457 -0.0357,0.0357 -0.15214,0.6699 -0.25882,1.4094 -0.2312,1.60273 -0.3674,2.12773 -0.56948,2.19509 -0.0827,0.0276 -0.56542,-0.33661 -1.07268,-0.8093 z"
         id="path2685" />
      <path
         style="fill:#9bf8b2;fill-opacity:1;stroke-width:0.136364"
         d="m 192.46539,611.4375 c -1.9168,-0.42619 -3.26235,-1.77932 -3.26922,-3.28766 -0.003,-0.7329 0.35802,-1.28003 1.36652,-2.06902 0.46276,-0.36204 1.00348,-0.79651 1.20159,-0.96549 l 0.3602,-0.30723 -0.34091,-0.26646 c -0.1875,-0.14655 -0.51112,-0.3977 -0.71916,-0.55811 -0.43872,-0.33826 -0.83178,-1.0273 -0.70399,-1.23408 0.0484,-0.0783 0.51521,-0.41622 1.03736,-0.75091 0.62823,-0.40268 0.93476,-0.68281 0.90621,-0.82816 -0.0237,-0.1208 -0.40874,-0.44075 -0.85557,-0.711 -1.00819,-0.60976 -1.52549,-1.39189 -1.72018,-2.6008 -0.39593,-2.45852 1.00165,-4.26749 3.86424,-5.00169 1.09558,-0.281 2.42365,-0.18085 3.77179,0.28442 1.20035,0.41426 2.64775,0.47336 3.30238,0.13484 0.50808,-0.26274 0.58315,-0.20091 0.47247,0.3891 -0.1497,0.79792 -0.37535,0.97607 -1.33281,1.05225 l -0.86365,0.0687 -0.005,1.36364 c -0.004,1.12891 -0.0604,1.48775 -0.32583,2.08468 -0.60364,1.3574 -2.14486,2.36695 -4.08858,2.67818 -1.43891,0.23039 -1.8592,0.59787 -1.5639,1.36739 0.15815,0.41214 0.82549,0.60552 2.58825,0.75003 3.59856,0.29498 4.50437,0.61707 5.08011,1.8064 0.80457,1.66202 -0.01,3.83758 -1.9566,5.22676 -1.08205,0.77214 -1.93915,1.138 -3.20556,1.36832 -1.23768,0.22509 -2.00737,0.2266 -3,0.006 z m 5.01591,-1.53417 c 1.96768,-1.00631 2.22558,-3.36814 0.47046,-4.30841 -0.77143,-0.41328 -2.04893,-0.64963 -3.5113,-0.64963 -1.29181,0 -2.0157,0.29914 -2.72269,1.12509 -0.82047,0.95854 -0.80941,2.05458 0.0301,2.98383 0.90927,1.00645 1.93939,1.35945 3.76143,1.28894 1.00086,-0.0387 1.33223,-0.11264 1.97199,-0.43982 z m -1.66668,-10.145 c 0.74175,-0.45842 1.08259,-1.33815 1.08259,-2.79424 0,-1.0534 -0.0504,-1.3291 -0.34899,-1.90909 -0.78045,-1.51594 -2.72918,-2.00943 -3.89452,-0.98625 -0.58307,0.51194 -0.70564,0.73647 -0.86724,1.58861 -0.23752,1.25242 0.21379,2.94811 0.97248,3.65388 0.8319,0.77386 2.20248,0.9744 3.05568,0.44709 z m -32.63063,4.77913 c -2.09818,-0.44548 -3.67132,-2.09838 -4.13838,-4.34819 -0.25489,-1.22784 -0.10928,-3.08062 0.31445,-4.00098 1.68952,-3.66975 7.17922,-4.70261 9.90688,-1.86393 2.27811,2.37084 1.89677,7.00898 -0.74114,9.01416 -1.34745,1.02425 -3.68915,1.54983 -5.34181,1.19894 z m 3.63811,-1.24102 c 0.99814,-0.56099 1.47253,-1.54774 1.60062,-3.32935 0.19604,-2.72672 -0.79769,-5.01703 -2.58595,-5.96 -0.43695,-0.23041 -0.81166,-0.30467 -1.55281,-0.30775 -0.87045,-0.004 -1.04132,0.041 -1.56819,0.40964 -0.36399,0.25467 -0.74712,0.70022 -0.99667,1.15909 -0.36199,0.66562 -0.41096,0.89991 -0.4575,2.18891 -0.0608,1.68282 0.11269,2.67165 0.66097,3.76824 1.05344,2.10694 3.21223,3.01954 4.89953,2.07122 z m 40.67747,1.16543 c -2.00068,-0.53874 -3.36989,-1.9748 -3.84411,-4.03182 -0.20781,-0.90143 -0.17231,-2.8 0.0684,-3.65763 0.46524,-1.65765 1.89869,-3.04511 3.82921,-3.70636 1.30367,-0.44653 3.31354,-0.44699 4.44597,-10e-4 2.92749,1.1529 4.21205,5.06756 2.71261,8.26663 -1.15532,2.4649 -4.42028,3.88197 -7.21207,3.13021 z m 3.27637,-0.88841 c 0.64717,-0.17972 1.39745,-0.83034 1.74649,-1.5145 0.65596,-1.28581 0.64503,-3.85012 -0.024,-5.63838 -0.4255,-1.13725 -1.56819,-2.28321 -2.56911,-2.57647 -1.34315,-0.39352 -2.20665,-0.20869 -3.07314,0.65781 -0.92613,0.92612 -1.29839,2.48679 -1.03864,4.35434 0.35303,2.53818 1.42612,4.1147 3.17153,4.65939 0.73131,0.22823 1.12713,0.24103 1.78691,0.0578 z m -37.37557,0.51936 c 0.0379,-0.38636 0.10526,-0.44677 0.6439,-0.57721 1.10661,-0.26797 1.11589,-0.30531 1.11512,-4.48826 -5.5e-4,-2.78442 -0.0426,-3.70489 -0.17688,-3.86825 -0.0969,-0.1179 -0.55973,-0.38871 -1.02848,-0.6018 -0.91424,-0.41562 -1.09079,-0.73723 -0.47728,-0.86943 0.20625,-0.0444 1.08069,-0.25358 1.94319,-0.46475 0.8625,-0.21117 1.66022,-0.40609 1.77272,-0.43316 0.16219,-0.039 0.21296,0.12729 0.24515,0.80306 0.0233,0.48827 0.10281,0.85227 0.18627,0.85227 0.0801,0 0.43004,-0.20721 0.77759,-0.46047 1.11764,-0.81442 2.0559,-1.21075 3.03306,-1.28118 1.122,-0.0809 1.69772,0.10242 2.47744,0.78875 1.1787,1.03754 1.43332,2.30551 1.45358,7.23859 0.01,2.43287 0.0338,2.48797 1.20183,2.78455 0.58541,0.14865 0.64781,0.20244 0.64781,0.55849 v 0.394 l -2.90096,0.0368 c -2.59523,0.0329 -2.9101,0.013 -2.98761,-0.18899 -0.13904,-0.36231 0.14624,-0.6544 0.75714,-0.77521 0.97392,-0.1926 0.99657,-0.2884 0.94726,-4.0056 -0.0422,-3.1777 -0.0506,-3.26222 -0.38573,-3.86075 -0.49231,-0.87926 -1.29511,-1.29982 -2.45283,-1.28494 -1.00793,0.013 -2.0137,0.41285 -2.45758,0.97715 -0.25254,0.32105 -0.26969,0.5623 -0.26969,3.79286 0,1.89751 0.057,3.59988 0.12663,3.78306 0.12984,0.34151 0.74348,0.63925 1.31749,0.63925 0.38813,0 0.51501,0.19115 0.40852,0.61546 l -0.0821,0.32723 h -2.93891 -2.9389 z m 67.95138,0.32165 c -2.08438,-0.0791 -2.17971,-0.095 -2.13477,-0.35554 0.0753,-0.43658 0.25825,-0.57168 0.89162,-0.6585 0.87425,-0.11983 1.27849,-0.34951 1.45412,-0.8262 0.18192,-0.49377 0.36446,-12.4536 0.20619,-13.50905 -0.12841,-0.85627 -0.51405,-1.23578 -1.38029,-1.35834 -0.98178,-0.13892 -1.1505,-0.20795 -1.1505,-0.47073 0,-0.54463 0.16315,-0.56354 4.86147,-0.56354 4.7941,0 5.46709,0.0641 6.69173,0.63745 1.79668,0.84116 2.59393,3.15038 1.69559,4.91127 -0.30368,0.59529 -1.13798,1.40736 -1.79479,1.74702 -0.23427,0.12114 -0.40197,0.29215 -0.37268,0.38001 0.0293,0.0879 0.41671,0.29909 0.86096,0.46939 1.13183,0.43388 2.0646,1.19047 2.56697,2.08213 0.38565,0.68449 0.42257,0.85721 0.42257,1.97727 0,1.06334 -0.0502,1.32945 -0.37566,1.9922 -0.73483,1.49633 -2.43701,2.71389 -4.58205,3.27755 -1.18633,0.31173 -4.09179,0.41065 -7.86048,0.26761 z m 7.73255,-1.31749 c 1.48055,-0.50447 2.32505,-1.80333 2.3447,-3.60623 0.02,-1.83924 -0.91694,-3.13949 -2.71072,-3.76168 -0.91693,-0.31804 -4.13973,-0.44724 -4.31356,-0.17292 -0.16418,0.2591 -0.14915,5.67265 0.0174,6.25278 0.19735,0.68754 0.5459,1.07612 1.16217,1.29561 0.73787,0.26281 2.7191,0.25853 3.50005,-0.008 z m -0.77845,-8.94087 c 0.31977,-0.0888 0.77787,-0.38433 1.10846,-0.71515 0.96014,-0.96081 1.1049,-2.54579 0.35919,-3.93294 -0.63606,-1.18321 -2.04144,-1.78515 -4.00686,-1.71619 -1.05512,0.037 -1.14708,0.0638 -1.30701,0.38074 -0.23719,0.47 -0.24814,5.73701 -0.0124,5.97272 0.21165,0.21166 3.10598,0.21977 3.85864,0.0108 z m -113.24955,9.90542 c 0,-0.25811 0.0889,-0.35792 0.375,-0.42102 0.81275,-0.17926 1.0502,-0.29396 1.29935,-0.62766 0.23927,-0.32048 0.25963,-0.63046 0.26578,-4.04563 0.005,-2.96136 -0.0311,-3.74442 -0.18264,-3.9287 -0.10412,-0.12658 -0.57283,-0.40449 -1.04158,-0.61759 -0.9315,-0.42346 -1.05218,-0.60894 -0.47727,-0.73352 0.20625,-0.0447 0.98863,-0.23717 1.73863,-0.42773 0.75,-0.19055 1.51419,-0.35458 1.69819,-0.36451 0.31393,-0.0169 0.3323,0.0204 0.29799,0.60565 -0.0576,0.98203 0.20746,1.09228 1.13912,0.47388 1.75617,-1.16568 3.22371,-1.54058 4.3487,-1.11095 0.37284,0.14239 0.86613,0.51515 1.30326,0.98482 l 0.70336,0.75571 0.36833,-0.24389 c 2.02047,-1.3379 3.05066,-1.73953 4.22789,-1.6483 1.61593,0.12522 2.78402,1.25723 3.1433,3.04621 0.09,0.4481 0.15623,2.09167 0.15623,3.87645 0,3.55786 0.002,3.56499 1.15909,3.8594 0.58397,0.14861 0.68182,0.22116 0.68182,0.50551 v 0.332 h -2.79546 c -2.78193,0 -2.79566,-0.001 -2.8384,-0.302 -0.0333,-0.23433 0.0431,-0.32265 0.34091,-0.39414 1.36024,-0.3265 1.45028,-0.6097 1.38591,-4.35866 -0.046,-2.68005 -0.0689,-2.89478 -0.37473,-3.51749 -0.47955,-0.97641 -1.28526,-1.45086 -2.46084,-1.44911 -0.65755,9.6e-4 -1.07395,0.0871 -1.57558,0.326 -1.29738,0.61778 -1.19449,0.22533 -1.16786,4.45445 0.0226,3.58939 0.035,3.75125 0.30882,4.04275 0.1569,0.16702 0.5371,0.35314 0.84489,0.41361 0.47459,0.0932 0.56616,0.16637 0.60276,0.48136 l 0.0431,0.37141 h -2.87269 -2.87269 v -0.33172 c 0,-0.33678 0.0821,-0.38681 0.90631,-0.55219 0.88785,-0.17816 0.92953,-0.32807 0.9808,-3.52783 0.0294,-1.8349 -0.0105,-3.14043 -0.1098,-3.58955 -0.33821,-1.53026 -1.42752,-2.34246 -2.93322,-2.18706 -0.96226,0.0993 -2.30905,0.80117 -2.52148,1.31401 -0.10487,0.25318 -0.14115,1.48777 -0.1134,3.85925 0.0457,3.91118 0.0596,3.966 1.04814,4.14384 0.63193,0.11369 0.82257,0.27015 0.73539,0.60354 -0.0667,0.25526 -0.20247,0.26771 -2.91774,0.26771 h -2.84773 z m 84.46702,0.15622 c -0.14761,-0.38466 0.18614,-0.74364 0.78552,-0.84491 0.88824,-0.15006 1.29192,-0.64281 1.40131,-1.71046 0.0494,-0.4819 0.0708,-3.62728 0.0475,-6.98973 l -0.0423,-6.11355 -0.424,-0.37875 c -0.2978,-0.26602 -0.69403,-0.42971 -1.33124,-0.54994 -0.49898,-0.0942 -0.93683,-0.21906 -0.97299,-0.27758 -0.0362,-0.0585 0.0421,-0.23956 0.17386,-0.40232 0.2382,-0.29417 0.27152,-0.296 5.62427,-0.30974 5.10288,-0.0131 5.44031,10e-4 6.44835,0.27789 2.80362,0.7689 4.73461,2.50832 5.64873,5.08834 0.28694,0.80988 0.36854,1.33065 0.41773,2.66609 0.0724,1.96599 -0.15154,3.19328 -0.84431,4.62698 -1.10674,2.29039 -3.17229,3.90407 -6.023,4.70538 -1.00409,0.28224 -1.42803,0.30793 -5.95579,0.36093 -4.25471,0.0498 -4.88479,0.0309 -4.95368,-0.14863 z m 10.24297,-1.11914 c 2.43753,-0.63078 4.13146,-2.69337 4.64285,-5.65332 0.52139,-3.01785 -0.2219,-5.86905 -1.99131,-7.63846 -1.48206,-1.48207 -3.74507,-2.25685 -6.30426,-2.15839 -1.91066,0.0735 -1.75629,-0.59491 -1.70983,7.40365 0.0427,7.34787 0.0151,7.10401 0.86794,7.66285 0.86249,0.56512 3.06642,0.75325 4.49461,0.38367 z m 31.07008,-0.81297 c 0.002,-0.82726 0.0173,-0.88864 0.11973,-0.46208 0.067,0.27922 0.0663,0.69168 -0.002,0.95398 -0.10112,0.39028 -0.11948,0.31384 -0.11807,-0.4919 z m -2.71189,0.0688 c -0.0464,-0.075 -0.0193,-0.13637 0.0601,-0.13637 0.0794,0 0.14441,0.0614 0.14441,0.13637 0,0.075 -0.0271,0.13636 -0.0601,0.13636 -0.0331,0 -0.0981,-0.0614 -0.14441,-0.13636 z"
         id="path2683" />
    </g>
  </g>
  <metadata
     id="metadata3249">
    <rdf:RDF>
      <cc:Work
         rdf:about="">
        <dc:title>MongoDB_Logo_FullColorBlack_RGB</dc:title>
      </cc:Work>
    </rdf:RDF>
  </metadata>
</svg>
