<?xml version="1.0" encoding="UTF-8" standalone="no"?>
<svg
   viewBox="-11.5 -10.23174 150.0031 91.949022"
   version="1.1"
   id="svg3644"
   width="150.0031"
   height="91.94902"
   xmlns="http://www.w3.org/2000/svg"
   xmlns:svg="http://www.w3.org/2000/svg"
   xmlns:rdf="http://www.w3.org/1999/02/22-rdf-syntax-ns#"
   xmlns:cc="http://creativecommons.org/ns#"
   xmlns:dc="http://purl.org/dc/elements/1.1/">
  <defs
     id="defs3648">
    <clipPath
       id="a">
      <path
         d="m 239.03,226.605 -42.13,24.317 c -1.578,0.91 -2.546,2.59 -2.546,4.406 v 48.668 c 0,1.817 0.968,3.496 2.546,4.406 l 42.133,24.336 c 1.575,0.907 3.517,0.907 5.09,0 l 42.126,-24.336 c 1.57,-0.91 2.54,-2.59 2.54,-4.406 v -48.668 c 0,-1.816 -0.97,-3.496 -2.55,-4.406 l -42.12,-24.317 c -0.79,-0.453 -1.67,-0.68 -2.55,-0.68 -0.88,0 -1.76,0.227 -2.55,0.68"
         id="path4622" />
    </clipPath>
    <linearGradient
       id="b"
       x1="-0.34799999"
       x2="1.251"
       gradientTransform="matrix(-38.064915,77.652126,-77.652126,-38.064915,258.72325,244.62943)"
       gradientUnits="userSpaceOnUse">
      <stop
         offset=".3"
         stop-color="#3E863D"
         id="stop4625" />
      <stop
         offset=".5"
         stop-color="#55934F"
         id="stop4627" />
      <stop
         offset=".8"
         stop-color="#5AAD45"
         id="stop4629" />
    </linearGradient>
    <clipPath
       id="c">
      <path
         d="m 195.398,307.086 c 0.403,0.523 0.907,0.976 1.5,1.316 l 36.14,20.875 6.02,3.46 c 0.9,0.52 1.926,0.74 2.934,0.665 0.336,-0.027 0.672,-0.09 1,-0.183 l 44.434,-81.36 c -0.34,-0.37 -0.738,-0.68 -1.184,-0.94 l -27.586,-15.93 -14.582,-8.39 c -0.414,-0.24 -0.863,-0.41 -1.32,-0.53 z m 0,0"
         id="path4632" />
    </clipPath>
    <linearGradient
       id="d"
       x1="-0.456"
       x2="0.58200002"
       gradientTransform="matrix(106.8057,-78.916731,78.916731,106.8057,235.18824,285.39477)"
       gradientUnits="userSpaceOnUse">
      <stop
         offset=".57"
         stop-color="#3E863D"
         id="stop4635" />
      <stop
         offset=".72"
         stop-color="#619857"
         id="stop4637" />
      <stop
         offset="1"
         stop-color="#76AC64"
         id="stop4639" />
    </linearGradient>
    <clipPath
       id="e">
      <path
         d="m 241.066,225.953 c -0.707,0.07 -1.398,0.29 -2.035,0.652 l -42.01,24.247 45.3,82.51 c 0.63,-0.09 1.25,-0.3 1.81,-0.624 l 42.13,-24.336 c 1.3,-0.754 2.19,-2.03 2.46,-3.476 l -46.18,-78.89 c -0.34,-0.067 -0.68,-0.102 -1.03,-0.102 -0.14,0 -0.28,0.007 -0.42,0.02"
         id="path4642" />
    </clipPath>
    <linearGradient
       id="f"
       x1="0.043000001"
       x2="0.98400003"
       gradientTransform="matrix(97.417,0,0,97.417,192.862,279.652)"
       gradientUnits="userSpaceOnUse">
      <stop
         offset=".16"
         stop-color="#6BBF47"
         id="stop4645" />
      <stop
         offset=".38"
         stop-color="#79B461"
         id="stop4647" />
      <stop
         offset=".47"
         stop-color="#75AC64"
         id="stop4649" />
      <stop
         offset=".7"
         stop-color="#659E5A"
         id="stop4651" />
      <stop
         offset=".9"
         stop-color="#3E863D"
         id="stop4653" />
    </linearGradient>
  </defs>
  <title
     id="title3632">React Logo</title>
  <metadata
     id="metadata4096">
    <rdf:RDF>
      <cc:Work
         rdf:about="">
        <dc:title>React Logo</dc:title>
      </cc:Work>
    </rdf:RDF>
  </metadata>
  <g
     id="g4974"
     transform="translate(371.84156,-179.94284)">
    <path
       style="fill:#fdfefd;fill-opacity:0;stroke-width:0.254237"
       d="m -383.3385,242.45628 c 0,-18.49942 0.017,-19.19477 0.4632,-18.95596 0.3692,0.19759 1.34848,-0.25603 4.82559,-2.23534 2.39931,-1.36578 4.59342,-2.69231 4.87578,-2.94785 0.48636,-0.44014 0.5134,-0.76903 0.5134,-6.2445 0,-5.13983 0.0493,-5.83667 0.44491,-6.29263 0.6131,-0.70656 4.38571,-2.84878 5.01587,-2.84819 0.54285,5.1e-4 4.70409,2.39273 5.02261,2.8874 0.10273,0.15954 0.19994,2.74983 0.21602,5.75618 0.0161,3.00636 0.10801,5.7488 0.20429,6.09431 0.1348,0.48373 1.21876,1.22919 4.71347,3.24152 2.49613,1.43733 4.74727,2.61333 5.00252,2.61333 0.25526,0 0.58254,-0.2213 0.72729,-0.49176 0.40896,-0.76415 0.34903,-22.33132 -0.0643,-23.15231 -0.41767,-0.82955 -14.92871,-9.2432 -15.90963,-9.22457 -0.70593,0.0134 -15.17426,8.21773 -15.73319,8.92157 -0.25517,0.32131 -0.3178,-2.5656 -0.3178,-14.64841 v -15.04859 h 50.22081 c 49.57306,0 50.21742,0.006 49.95763,0.49176 -0.17,0.31764 -0.26319,4.45849 -0.26319,11.69491 0,10.24628 -0.0359,11.20316 -0.41993,11.20316 -0.23096,0 -1.31249,-0.51483 -2.40341,-1.14407 -1.09091,-0.62924 -2.18977,-1.14407 -2.44191,-1.14407 -0.57706,0 -15.34208,8.4962 -15.77288,9.07615 -0.23991,0.32297 -0.3178,2.58979 -0.3178,9.24937 0,8.0401 0.0394,8.86616 0.44492,9.32522 0.2447,0.27702 2.44703,1.65044 4.89407,3.05206 2.44703,1.40161 5.76185,3.30416 7.36626,4.22788 1.60441,0.92372 3.12675,1.67949 3.38297,1.67949 0.54165,0 14.80816,-8.17674 15.56432,-8.92057 0.49893,-0.49079 0.50991,-0.88808 0.5845,-21.14998 0.0507,-13.77971 -0.012,-20.95341 -0.18867,-21.56241 -0.24585,-0.84768 -0.58147,-1.08998 -4.71585,-3.40468 -2.44814,-1.37063 -4.45116,-2.53304 -4.45116,-2.58314 0,-0.0501 10.92585,-0.0911 24.27966,-0.0911 h 24.27966 v 15.17571 c 0,12.19367 -0.0624,15.0937 -0.3178,14.75835 -0.41245,-0.54168 -15.16777,-9.08725 -15.68594,-9.08454 -0.37613,0.002 -14.83232,8.21862 -15.6422,8.89077 -0.33454,0.27763 -0.38796,1.5726 -0.38796,9.40398 0,8.33024 0.0368,9.11456 0.44492,9.47522 1.05334,0.93094 14.84708,8.5839 15.47168,8.5839 0.66523,0 9.22317,-4.56338 9.75127,-5.1997 0.15021,-0.18099 0.21072,-0.49165 0.13447,-0.69037 -0.0763,-0.19871 -3.40352,-2.23099 -7.39392,-4.51619 -3.99041,-2.28519 -7.4194,-4.31901 -7.61999,-4.5196 -0.27179,-0.27179 -0.36371,-1.05633 -0.36081,-3.07959 0.002,-1.49319 0.088,-2.8378 0.19068,-2.98803 0.19721,-0.28839 4.99757,-3.15906 5.2826,-3.15906 0.153,0 4.91085,2.7258 5.2008,2.97957 0.0699,0.0612 0.18432,1.27493 0.25423,2.6972 0.11521,2.34354 0.17478,2.59244 0.6356,2.65531 0.54737,0.0747 9.19943,-4.83134 9.71567,-5.50913 0.24515,-0.32186 0.31223,5.52087 0.31862,27.74908 l 0.008,28.15678 -37.69068,-0.002 c -34.25247,-0.002 -37.6211,-0.0376 -36.92796,-0.39688 0.41949,-0.21742 3.7833,-2.13303 7.47514,-4.25691 4.86376,-2.79807 6.84302,-4.07165 7.18662,-4.6243 0.44238,-0.71155 0.46963,-1.34644 0.40621,-9.46485 l -0.068,-8.70219 -0.6356,-0.62333 c -0.34957,-0.34283 -3.49576,-2.27285 -6.99152,-4.28894 -7.78321,-4.48874 -7.81613,-4.50579 -8.695,-4.50414 -0.92251,0.002 -15.00822,8.09042 -15.71178,9.02246 -0.47981,0.63562 -0.51294,1.13483 -0.58759,8.85456 -0.052,5.37131 0.0157,8.50401 0.19706,9.12158 0.31375,1.06864 0.78016,1.44369 3.86003,3.10394 2.76953,1.49297 4.25319,1.72833 5.89251,0.93474 1.94064,-0.93944 1.95155,-0.99983 1.95155,-10.80162 v -8.54208 h -1.14407 -1.14407 v 8.10743 c 0,7.54254 -0.0331,8.14836 -0.47572,8.69491 -0.76273,0.94194 -1.89636,0.77438 -4.36877,-0.64575 -1.18087,-0.67828 -2.23201,-1.359 -2.33587,-1.51271 -0.10386,-0.15371 -0.16106,-3.82487 -0.12712,-8.15814 l 0.0617,-7.87867 6.48305,-3.7426 c 3.56568,-2.05844 6.72691,-3.87363 7.02496,-4.03377 0.47617,-0.25584 1.27801,0.13132 6.61017,3.19164 3.33754,1.91553 6.49889,3.7608 7.02521,4.1006 l 0.95696,0.6178 -0.0671,8.03615 -0.0671,8.03615 -6.96843,4.02416 c -3.83263,2.21329 -7.03602,3.98802 -7.11864,3.94386 -0.0826,-0.0442 -0.95257,-0.55143 -1.93322,-1.12726 l -1.783,-1.04698 -1.23313,0.59431 -1.23312,0.59431 2.1263,1.27395 c 1.16946,0.70067 2.46951,1.45526 2.889,1.67685 0.69931,0.3694 -2.29675,0.40374 -36.03813,0.41307 l -36.80085,0.0102 z m 82.61728,7.50496 c 1.55415,-0.86545 2.29797,-2.03252 2.29797,-3.60556 0,-2.66484 -1.1621,-3.4648 -6.23697,-4.2933 -3.50722,-0.57258 -4.44099,-0.94701 -4.44099,-1.78075 0,-1.40845 1.12387,-2.01132 3.74951,-2.01132 2.14314,0 3.22254,0.51383 3.79232,1.80526 0.41084,0.93119 0.50384,0.99135 1.53252,0.99135 0.99085,0 1.09514,-0.059 1.09514,-0.61904 0,-1.50962 -0.96564,-2.87871 -2.66949,-3.78482 -0.84815,-0.45104 -1.46006,-0.54189 -3.68644,-0.54729 -2.34669,-0.006 -2.82316,0.0704 -3.94031,0.62912 -2.1794,1.09001 -2.95328,3.05158 -2.0535,5.20505 0.53327,1.27629 1.87014,1.83748 5.78685,2.42921 3.61885,0.54672 4.52899,0.92547 4.52899,1.8847 0,1.64981 -1.05544,2.25222 -3.94599,2.25222 -2.92356,0 -3.86931,-0.37078 -4.48269,-1.75742 -0.47637,-1.07693 -0.53252,-1.11546 -1.62559,-1.11546 -1.00626,0 -1.13155,0.0636 -1.12659,0.57203 0.008,0.79493 0.83072,2.50911 1.48335,3.08972 1.13916,1.01346 3.01627,1.43832 6.01107,1.36054 2.42414,-0.063 2.94768,-0.15676 3.93084,-0.70424 z m 13.82588,-13.24444 c 1.14814,-0.52312 1.60548,-2.26858 0.92671,-3.53685 -0.46153,-0.86239 -1.89208,-1.35082 -2.94173,-1.0044 -1.12892,0.37258 -1.63153,1.12495 -1.63153,2.44229 0,0.87701 0.13801,1.18103 0.78222,1.72309 0.83839,0.70546 1.8497,0.83817 2.86433,0.37587 z m -2.76827,-0.59595 c -1.36409,-1.36409 -0.40845,-3.74885 1.50227,-3.74885 1.34216,0 2.19572,0.83215 2.19572,2.14062 0,2.01054 -2.29682,3.00941 -3.69799,1.60823 z m 1.15562,-0.77427 c 0,-0.39184 0.14439,-0.63559 0.37651,-0.63559 0.20708,0 0.4483,0.28601 0.53604,0.63559 0.0877,0.34958 0.26828,0.63559 0.4012,0.63559 0.13292,0 0.16346,-0.12656 0.0679,-0.28125 -0.0956,-0.15469 -0.16374,-0.78393 -0.15141,-1.3983 0.0223,-1.10922 0.0162,-1.11706 -0.85813,-1.11706 h -0.88055 v 1.39831 c 0,0.76907 0.11441,1.3983 0.25424,1.3983 0.13983,0 0.25424,-0.28601 0.25424,-0.63559 z m 0,-1.3983 c 0,-0.38292 0.13275,-0.5202 0.44491,-0.46008 0.24471,0.0471 0.44492,0.25416 0.44492,0.46008 0,0.20591 -0.20021,0.41295 -0.44492,0.46007 -0.31216,0.0601 -0.44491,-0.0772 -0.44491,-0.46007 z m -31.52824,-10.97271 c 5.86088,-3.36345 7.66552,-4.51637 7.88003,-5.03424 0.18792,-0.45368 0.25437,-3.45036 0.20474,-9.2324 -0.0702,-8.1755 -0.0964,-8.58288 -0.58196,-9.0535 -0.99557,-0.96489 -14.70966,-8.67326 -15.43074,-8.67326 -0.75031,0 -15.07284,8.08745 -15.64976,8.8369 -0.2402,0.31203 -0.3178,2.56681 -0.3178,9.23438 0,8.03622 0.0396,8.86729 0.44491,9.33542 0.50952,0.58848 15.00202,8.94924 15.51259,8.94924 0.1849,0 3.75699,-1.96315 7.93799,-4.36254 z m 72.31045,-11.45375 1.42118,-0.81628 v -1.71391 -1.71391 l -1.54192,-0.90369 -1.54191,-0.90369 -1.44537,0.84354 -1.44538,0.84355 -0.0741,1.79714 -0.0741,1.79714 1.34527,0.7789 c 0.73989,0.42839 1.47798,0.78533 1.64019,0.7932 0.1622,0.008 0.93445,-0.35303 1.7161,-0.80199 z m -43.70594,2.39246 -2.54237,-1.47464 -0.0713,-3.09353 -0.0713,-3.09352 0.96115,-0.60547 c 0.52863,-0.333 1.762,-1.04033 2.74081,-1.57184 l 1.77966,-0.96639 2.54237,1.50971 2.54238,1.50971 0.0711,3.06752 c 0.0523,2.2548 -0.0151,3.13854 -0.25424,3.33556 -0.46615,0.38407 -4.78137,2.85757 -4.9852,2.85754 -0.0938,-10e-6 -1.3147,-0.6636 -2.713,-1.47465 z"
       id="path4978" />
    <path
       style="fill:#9bf8b2;fill-opacity:1;stroke-width:0.254358"
       d="m -310.50182,261.16589 c -0.4195,-0.22872 -1.71956,-0.98967 -2.88904,-1.691 l -2.12632,-1.27514 1.23314,-0.59487 1.23313,-0.59487 1.78302,1.04796 c 0.98067,0.57638 1.85063,1.08412 1.93325,1.12832 0.0826,0.0442 3.28604,-1.7322 7.11871,-3.94757 l 6.9685,-4.02793 0.0671,-8.0437 0.0671,-8.0437 -0.95696,-0.61838 c -0.52633,-0.34012 -3.68771,-2.18712 -7.02529,-4.10445 -5.33222,-3.0632 -6.13406,-3.45072 -6.61024,-3.19464 -0.29805,0.16029 -3.45932,1.97719 -7.02503,4.03756 l -6.48312,3.74612 -0.0617,7.88606 c -0.0339,4.33734 0.0233,8.01195 0.12712,8.16581 0.10386,0.15386 1.15502,0.83521 2.3359,1.51413 2.47243,1.42146 3.60607,1.58918 4.36881,0.64636 0.44258,-0.54707 0.47573,-1.15346 0.47573,-8.70308 v -8.11505 h 1.14408 1.14408 v 8.55011 c 0,9.81099 -0.0109,9.87144 -1.95157,10.81177 -1.63934,0.79432 -3.12301,0.55875 -5.89257,-0.93562 -3.0799,-1.66182 -3.54631,-2.03722 -3.86007,-3.10686 -0.18133,-0.61815 -0.24901,-3.7538 -0.19706,-9.13015 0.0747,-7.72698 0.10778,-8.22666 0.58759,-8.86288 0.70357,-0.93291 14.78943,-9.02919 15.71194,-9.03093 0.87888,-0.002 0.91181,0.0154 8.69509,4.50837 3.4958,2.01798 6.64202,3.94981 6.9916,4.29297 l 0.6356,0.62392 0.068,8.71031 c 0.0634,8.1256 0.0362,8.76157 -0.40616,9.47375 -0.34551,0.55633 -2.43302,1.89225 -7.69517,4.92461 -3.97158,2.28864 -7.56427,4.20783 -7.98376,4.26486 -0.4195,0.057 -1.10595,-0.0835 -1.52544,-0.31217 z m 1.71552,-10.99635 c -0.73444,-0.26133 -1.58006,-0.69305 -1.87914,-0.95938 -0.65263,-0.58115 -1.4756,-2.29694 -1.48336,-3.09262 -0.005,-0.5089 0.12032,-0.57257 1.1266,-0.57257 1.09308,0 1.14923,0.0386 1.62561,1.1165 0.61338,1.38795 1.55914,1.75908 4.48273,1.75908 2.89058,0 3.94603,-0.60297 3.94603,-2.25433 0,-0.96014 -0.91014,-1.33924 -4.52904,-1.88648 -3.91675,-0.59228 -5.25363,-1.154 -5.7869,-2.43149 -0.89979,-2.1555 -0.12591,-4.1189 2.05352,-5.20994 1.11716,-0.55926 1.59363,-0.63541 3.94035,-0.62971 2.2264,0.005 2.83832,0.0963 3.68647,0.54781 1.70387,0.90696 2.66952,2.27733 2.66952,3.78837 0,0.56061 -0.10429,0.61962 -1.09515,0.61962 -1.02869,0 -1.12169,-0.0602 -1.53254,-0.99228 -0.56978,-1.29264 -1.64919,-1.80696 -3.79235,-1.80696 -2.62567,0 -3.74955,0.60344 -3.74955,2.01322 0,0.83452 0.93378,1.20929 4.44104,1.78241 5.07491,0.82929 6.23703,1.63 6.23703,4.29734 0,1.57452 -0.74383,2.74269 -2.29799,3.60894 -0.98318,0.548 -1.50672,0.64188 -3.93088,0.70491 -2.22019,0.0577 -3.07189,-0.0252 -4.132,-0.40244 z m 19.02454,-13.93557 c -0.64422,-0.54257 -0.78223,-0.84687 -0.78223,-1.72471 0,-1.31858 0.50262,-2.07165 1.63155,-2.44458 1.64341,-0.54288 3.20587,0.56432 3.25537,2.30685 0.0628,2.21106 -2.37658,3.3179 -4.10469,1.86244 z m 3.17005,-0.22029 c 0.85804,-0.85884 0.86212,-2.37097 0.009,-3.1736 -1.42988,-1.34457 -3.70658,-0.32437 -3.70658,1.66094 0,1.91754 2.33806,2.87391 3.69804,1.51266 z m -2.42684,-1.53842 v -1.39962 h 0.88056 c 0.87438,0 0.8804,0.008 0.85814,1.1181 -0.0123,0.61496 0.0558,1.24479 0.1514,1.39962 0.0956,0.15484 0.0651,0.28152 -0.0679,0.28152 -0.13293,0 -0.31347,-0.28629 -0.40121,-0.63619 -0.0877,-0.34991 -0.32896,-0.63619 -0.53604,-0.63619 -0.23213,0 -0.37652,0.24398 -0.37652,0.63619 0,0.3499 -0.11441,0.63619 -0.25424,0.63619 -0.13983,0 -0.25424,-0.62983 -0.25424,-1.39962 z m 1.39832,-0.63619 c 0,-0.20611 -0.20021,-0.41334 -0.44492,-0.46051 -0.31217,-0.0602 -0.44492,0.0772 -0.44492,0.46051 0,0.38328 0.13275,0.52068 0.44492,0.46051 0.24471,-0.0472 0.44492,-0.2544 0.44492,-0.46051 z m -4.45582,-8.04297 c -1.60442,-0.92459 -4.91928,-2.82892 -7.36634,-4.23185 -2.44706,-1.40294 -4.64941,-2.77765 -4.89411,-3.05493 -0.40551,-0.45949 -0.44492,-1.28633 -0.44492,-9.33398 0,-6.66583 0.0779,-8.93479 0.3178,-9.25806 0.4308,-0.5805 15.19598,-9.08467 15.77304,-9.08467 0.25214,0 1.35102,0.51532 2.44194,1.14514 1.09092,0.62983 2.17247,1.14515 2.40343,1.14515 0.38407,0 0.41994,-0.95778 0.41994,-11.21368 0,-11.18243 0.073,-12.19812 0.87648,-12.19812 0.19255,0 2.42097,1.16543 4.95202,2.58985 4.27181,2.40408 4.62082,2.65508 4.86533,3.49905 0.17497,0.60391 0.23789,7.84932 0.18739,21.57837 -0.0746,20.28093 -0.0856,20.67859 -0.5845,21.16984 -0.75617,0.74454 -15.02283,8.92896 -15.56449,8.92896 -0.25623,0 -1.77858,-0.75648 -3.38301,-1.68107 z m 5.77053,-11.82977 c 1.23456,-0.71279 2.39105,-1.41671 2.56997,-1.56426 0.23914,-0.19721 0.3065,-1.08177 0.25424,-3.33869 l -0.0711,-3.07041 -2.5424,-1.51112 -2.5424,-1.51113 -1.77968,0.96729 c -0.97882,0.53201 -2.2122,1.24001 -2.74084,1.57333 l -0.96116,0.60603 0.0713,3.09643 0.0713,3.09643 2.5424,1.47602 c 1.39832,0.81181 2.61918,1.47603 2.71303,1.47605 0.0938,1e-5 1.18072,-0.58318 2.41528,-1.29597 z m -49.3732,9.03472 c -4.0512,-2.3219 -7.56603,-4.4531 -7.81073,-4.736 -0.40532,-0.46857 -0.44492,-1.30042 -0.44492,-9.34419 0,-6.67384 0.0776,-8.93073 0.3178,-9.24305 0.57693,-0.75015 14.8996,-8.8452 15.64992,-8.8452 0.72109,0 14.43532,7.71561 15.43091,8.6814 0.4856,0.47107 0.51179,0.87883 0.58196,9.06201 0.0496,5.78747 -0.0168,8.78697 -0.20475,9.24107 -0.21451,0.51836 -2.01917,1.67236 -7.88011,5.03897 -4.18103,2.40165 -7.75317,4.36663 -7.93807,4.36663 -0.18491,0 -3.65081,-1.89974 -7.70201,-4.22164 z m 78.27823,-0.18265 c -3.93444,-2.26636 -7.33807,-4.27782 -7.56363,-4.46991 -0.36317,-0.30928 -0.41012,-1.39071 -0.41012,-9.44808 0,-7.84615 0.0534,-9.14318 0.38796,-9.42109 0.8099,-0.67278 15.26624,-8.89716 15.64237,-8.89912 0.51817,-0.003 15.27364,8.55089 15.6861,9.09307 0.42672,0.56092 0.4195,5.38235 -0.009,5.94532 -0.51625,0.67843 -9.1684,5.58906 -9.71578,5.51431 -0.46082,-0.0629 -0.5204,-0.31206 -0.6356,-2.65781 -0.0699,-1.42361 -0.18432,-2.63848 -0.25424,-2.69973 -0.28995,-0.25401 -5.04785,-2.98237 -5.20085,-2.98237 -0.28503,0 -5.08545,2.87337 -5.28266,3.16203 -0.10273,0.15037 -0.18854,1.49624 -0.19068,2.99084 -0.003,2.02515 0.089,2.81043 0.36082,3.08248 0.20059,0.20078 3.62961,2.23651 7.62006,4.52385 3.99045,2.28734 7.31774,4.32153 7.394,4.52043 0.0762,0.1989 0.0157,0.50985 -0.13447,0.69101 -0.58517,0.70575 -9.08879,5.20441 -9.81042,5.19 -0.46147,-0.009 -3.36452,-1.5319 -7.88397,-4.13523 z m -125.50272,0.55293 c -0.40502,-0.22687 -0.43835,-1.13108 -0.43835,-11.89016 0,-8.93241 0.074,-11.73792 0.3178,-12.04518 0.55894,-0.7045 15.02742,-8.91653 15.73335,-8.92995 0.98093,-0.0187 15.49212,8.40291 15.9098,9.23323 0.41337,0.82176 0.4733,22.40919 0.0643,23.17406 -0.14475,0.27072 -0.47203,0.49222 -0.72729,0.49222 -0.25526,0 -2.50642,-1.1771 -5.00258,-2.61578 -3.49475,-2.01423 -4.57872,-2.76039 -4.71352,-3.24457 -0.0963,-0.34583 -0.18821,-3.09085 -0.20429,-6.10003 -0.0161,-3.00918 -0.11329,-5.60189 -0.21602,-5.76159 -0.31853,-0.49514 -4.4798,-2.88959 -5.02266,-2.89011 -0.63017,-5.1e-4 -4.40282,2.14365 -5.01593,2.85087 -0.39562,0.45636 -0.44492,1.15364 -0.44492,6.29362 0,5.6727 -0.0106,5.78997 -0.57204,6.29387 -0.31462,0.28241 -2.28815,1.48774 -4.38563,2.67851 -5.11288,2.90267 -4.77477,2.74514 -5.28205,2.46099 z m 131.81945,-11.97098 -1.34529,-0.77963 0.0741,-1.79883 0.0741,-1.79883 1.44539,-0.84434 1.44539,-0.84434 1.54193,0.90454 1.54193,0.90454 v 1.71552 1.71552 l -1.4212,0.81705 c -0.78165,0.44938 -1.55391,0.81061 -1.71612,0.80274 -0.1622,-0.008 -0.9003,-0.36515 -1.6402,-0.79394 z"
       id="path4976" />
  </g>
</svg>
